SplineFontDB: 3.2
FontName: 5x7ascii
FullName: 5x7ascii
FamilyName: F5x7ascii
Weight: Book
Copyright: Copyright (c) 2020, Indiana Kernick
Version: 001.000
ItalicAngle: 0
UnderlinePosition: 0
UnderlineWidth: 0
Ascent: 16
Descent: 0
InvalidEm: 0
sfntRevision: 0x00010000
LayerCount: 2
Layer: 0 1 "Back" 1
Layer: 1 1 "Fore" 0
XUID: [1021 284 1582982652 11711745]
StyleMap: 0x0000
FSType: 0
OS2Version: 4
OS2_WeightWidthSlopeOnly: 0
OS2_UseTypoMetrics: 1
CreationTime: 1554010451
ModificationTime: 1595995590
PfmFamily: 17
TTFWeight: 400
TTFWidth: 5
LineGap: 2
VLineGap: 0
Panose: 2 0 5 3 0 0 0 0 0 0
OS2TypoAscent: 16
OS2TypoAOffset: 0
OS2TypoDescent: 0
OS2TypoDOffset: 0
OS2TypoLinegap: 2
OS2WinAscent: 14
OS2WinAOffset: 0
OS2WinDescent: 0
OS2WinDOffset: 0
HheadAscent: 14
HheadAOffset: 0
HheadDescent: 0
HheadDOffset: 0
OS2SubXSize: 10
OS2SubYSize: 11
OS2SubXOff: 0
OS2SubYOff: 2
OS2SupXSize: 10
OS2SupYSize: 11
OS2SupXOff: 0
OS2SupYOff: 7
OS2StrikeYSize: 0
OS2StrikeYPos: 4
OS2CapHeight: 14
OS2XHeight: 10
OS2Vendor: 'PfEd'
OS2CodePages: 00000001.00000000
OS2UnicodeRanges: 00000003.000001a0.00000020.00000000
MarkAttachClasses: 1
DEI: 91125
ShortTable: maxp 16
  1
  0
  117
  64
  11
  0
  0
  2
  0
  1
  1
  0
  64
  0
  0
  0
EndShort
LangName: 1033 "" "" "Regular" "FontForge 2.0 : 5x7ascii : 28-7-2020"
GaspTable: 1 65535 2 0
Encoding: UnicodeBmp
UnicodeInterp: none
NameList: AGL For New Fonts
DisplaySize: -48
AntiAlias: 1
FitToEm: 0
WinInfo: 0 16 10
BeginChars: 65539 117

StartChar: .notdef
Encoding: 65536 -1 0
Width: 12
Flags: W
LayerCount: 2
Fore
SplineSet
2 12 m 1,0,-1
 2 2 l 1,1,-1
 8 2 l 1,2,-1
 8 12 l 1,3,-1
 2 12 l 1,0,-1
0 14 m 1,4,-1
 10 14 l 1,5,-1
 10 0 l 1,6,-1
 0 0 l 1,7,-1
 0 14 l 1,4,-1
EndSplineSet
Validated: 1
EndChar

StartChar: exclam
Encoding: 33 33 4
Width: 12
GlyphClass: 2
Flags: W
LayerCount: 2
Fore
SplineSet
4 2 m 1,0,-1
 6 2 l 1,1,-1
 6 0 l 1,2,-1
 4 0 l 1,3,-1
 4 2 l 1,0,-1
4 14 m 1,4,-1
 6 14 l 1,5,-1
 6 4 l 1,6,-1
 4 4 l 1,7,-1
 4 14 l 1,4,-1
EndSplineSet
Validated: 1
EndChar

StartChar: quotedbl
Encoding: 34 34 5
Width: 12
GlyphClass: 2
Flags: W
LayerCount: 2
Fore
SplineSet
2 14 m 1,0,-1
 4 14 l 1,1,-1
 4 10 l 1,2,-1
 2 10 l 1,3,-1
 2 14 l 1,0,-1
6 14 m 1,4,-1
 8 14 l 1,5,-1
 8 10 l 1,6,-1
 6 10 l 1,7,-1
 6 14 l 1,4,-1
EndSplineSet
Validated: 1
EndChar

StartChar: numbersign
Encoding: 35 35 6
Width: 12
GlyphClass: 2
Flags: W
LayerCount: 2
Fore
SplineSet
6 8 m 1,0,-1
 4 8 l 1,1,-1
 4 6 l 1,2,-1
 6 6 l 1,3,-1
 6 8 l 1,0,-1
2 14 m 1,4,-1
 4 14 l 1,5,-1
 4 10 l 1,6,-1
 6 10 l 1,7,-1
 6 14 l 1,8,-1
 8 14 l 1,9,-1
 8 10 l 1,10,-1
 10 10 l 1,11,-1
 10 8 l 1,12,-1
 8 8 l 1,13,-1
 8 6 l 1,14,-1
 10 6 l 1,15,-1
 10 4 l 1,16,-1
 8 4 l 1,17,-1
 8 0 l 1,18,-1
 6 0 l 1,19,-1
 6 4 l 1,20,-1
 4 4 l 1,21,-1
 4 0 l 1,22,-1
 2 0 l 1,23,-1
 2 4 l 1,24,-1
 0 4 l 1,25,-1
 0 6 l 1,26,-1
 2 6 l 1,27,-1
 2 8 l 1,28,-1
 0 8 l 1,29,-1
 0 10 l 1,30,-1
 2 10 l 1,31,-1
 2 14 l 1,4,-1
EndSplineSet
Validated: 1
EndChar

StartChar: dollar
Encoding: 36 36 7
Width: 12
GlyphClass: 2
Flags: W
LayerCount: 2
Fore
SplineSet
8 6 m 1,0,-1
 8 4 l 1,1,-1
 10 4 l 1,2,-1
 10 6 l 1,3,-1
 8 6 l 1,0,-1
0 10 m 1,4,-1
 0 8 l 1,5,-1
 2 8 l 1,6,-1
 2 10 l 1,7,-1
 0 10 l 1,4,-1
4 14 m 1,8,-1
 6 14 l 1,9,-1
 6 12 l 1,10,-1
 10 12 l 1,11,-1
 10 10 l 1,12,-1
 6 10 l 1,13,-1
 6 8 l 1,14,-1
 8 8 l 1,15,-1
 8 6 l 1,16,-1
 6 6 l 1,17,-1
 6 4 l 1,18,-1
 8 4 l 1,19,-1
 8 2 l 1,20,-1
 6 2 l 1,21,-1
 6 0 l 1,22,-1
 4 0 l 1,23,-1
 4 2 l 1,24,-1
 0 2 l 1,25,-1
 0 4 l 1,26,-1
 4 4 l 1,27,-1
 4 6 l 1,28,-1
 2 6 l 1,29,-1
 2 8 l 1,30,-1
 4 8 l 1,31,-1
 4 10 l 1,32,-1
 2 10 l 1,33,-1
 2 12 l 1,34,-1
 4 12 l 1,35,-1
 4 14 l 1,8,-1
EndSplineSet
Validated: 5
EndChar

StartChar: percent
Encoding: 37 37 8
Width: 12
GlyphClass: 2
Flags: W
LayerCount: 2
Fore
SplineSet
0 14 m 1,0,-1
 0 10 l 1,1,-1
 4 10 l 1,2,-1
 4 14 l 1,3,-1
 0 14 l 1,0,-1
10 0 m 1,4,-1
 10 4 l 1,5,-1
 6 4 l 1,6,-1
 6 0 l 1,7,-1
 10 0 l 1,4,-1
6 8 m 1,8,-1
 6 6 l 1,9,-1
 4 6 l 1,10,-1
 4 8 l 1,11,-1
 6 8 l 1,8,-1
6 12 m 1,12,-1
 6 8 l 1,13,-1
 8 8 l 1,14,-1
 8 12 l 1,15,-1
 6 12 l 1,12,-1
2 2 m 1,16,-1
 2 6 l 1,17,-1
 4 6 l 1,18,-1
 4 2 l 1,19,-1
 2 2 l 1,16,-1
0 0 m 1,20,-1
 0 2 l 1,21,-1
 2 2 l 1,22,-1
 2 0 l 1,23,-1
 0 0 l 1,20,-1
8 14 m 1,24,-1
 8 12 l 1,25,-1
 10 12 l 1,26,-1
 10 14 l 1,27,-1
 8 14 l 1,24,-1
EndSplineSet
Validated: 5
EndChar

StartChar: ampersand
Encoding: 38 38 9
Width: 12
GlyphClass: 2
Flags: W
LayerCount: 2
Fore
SplineSet
6 6 m 1,0,-1
 6 4 l 1,1,-1
 4 4 l 1,2,-1
 4 6 l 1,3,-1
 6 6 l 1,0,-1
10 6 m 1,4,-1
 10 4 l 1,5,-1
 8 4 l 1,6,-1
 8 6 l 1,7,-1
 10 6 l 1,4,-1
8 2 m 1,8,-1
 8 0 l 1,9,-1
 10 0 l 1,10,-1
 10 2 l 1,11,-1
 8 2 l 1,8,-1
6 4 m 1,12,-1
 6 2 l 1,13,-1
 8 2 l 1,14,-1
 8 4 l 1,15,-1
 6 4 l 1,12,-1
2 2 m 1,16,-1
 2 0 l 1,17,-1
 6 0 l 1,18,-1
 6 2 l 1,19,-1
 2 2 l 1,16,-1
2 6 m 1,20,-1
 2 2 l 1,21,-1
 0 2 l 1,22,-1
 0 6 l 1,23,-1
 2 6 l 1,20,-1
4 8 m 1,24,-1
 4 6 l 1,25,-1
 2 6 l 1,26,-1
 2 8 l 1,27,-1
 4 8 l 1,24,-1
4 12 m 1,28,-1
 4 8 l 1,29,-1
 6 8 l 1,30,-1
 6 12 l 1,31,-1
 4 12 l 1,28,-1
2 12 m 1,32,-1
 2 8 l 1,33,-1
 0 8 l 1,34,-1
 0 12 l 1,35,-1
 2 12 l 1,32,-1
2 14 m 1,36,-1
 2 12 l 1,37,-1
 4 12 l 1,38,-1
 4 14 l 1,39,-1
 2 14 l 1,36,-1
EndSplineSet
Validated: 5
EndChar

StartChar: quotesingle
Encoding: 39 39 10
Width: 12
GlyphClass: 2
Flags: W
LayerCount: 2
Fore
SplineSet
6 14 m 1,0,-1
 6 10 l 1,1,-1
 4 10 l 1,2,-1
 4 14 l 1,3,-1
 6 14 l 1,0,-1
EndSplineSet
Validated: 1
EndChar

StartChar: parenleft
Encoding: 40 40 11
Width: 12
GlyphClass: 2
Flags: W
LayerCount: 2
Fore
SplineSet
6 2 m 1,0,-1
 6 0 l 1,1,-1
 8 0 l 1,2,-1
 8 2 l 1,3,-1
 6 2 l 1,0,-1
4 4 m 1,4,-1
 4 2 l 1,5,-1
 6 2 l 1,6,-1
 6 4 l 1,7,-1
 4 4 l 1,4,-1
6 12 m 1,8,-1
 6 14 l 1,9,-1
 8 14 l 1,10,-1
 8 12 l 1,11,-1
 6 12 l 1,8,-1
4 10 m 1,12,-1
 4 12 l 1,13,-1
 6 12 l 1,14,-1
 6 10 l 1,15,-1
 4 10 l 1,12,-1
2 10 m 1,16,-1
 2 4 l 1,17,-1
 4 4 l 1,18,-1
 4 10 l 1,19,-1
 2 10 l 1,16,-1
EndSplineSet
Validated: 5
EndChar

StartChar: parenright
Encoding: 41 41 12
Width: 12
GlyphClass: 2
Flags: W
LayerCount: 2
Fore
SplineSet
4 2 m 1,0,-1
 4 0 l 1,1,-1
 2 0 l 1,2,-1
 2 2 l 1,3,-1
 4 2 l 1,0,-1
6 4 m 1,4,-1
 6 2 l 1,5,-1
 4 2 l 1,6,-1
 4 4 l 1,7,-1
 6 4 l 1,4,-1
6 10 m 1,8,-1
 6 4 l 1,9,-1
 8 4 l 1,10,-1
 8 10 l 1,11,-1
 6 10 l 1,8,-1
4 12 m 1,12,-1
 4 10 l 1,13,-1
 6 10 l 1,14,-1
 6 12 l 1,15,-1
 4 12 l 1,12,-1
2 14 m 1,16,-1
 2 12 l 1,17,-1
 4 12 l 1,18,-1
 4 14 l 1,19,-1
 2 14 l 1,16,-1
EndSplineSet
Validated: 5
EndChar

StartChar: asterisk
Encoding: 42 42 13
Width: 12
GlyphClass: 2
Flags: W
LayerCount: 2
Fore
SplineSet
4 10 m 1,0,-1
 6 10 l 1,1,-1
 6 8 l 1,2,-1
 8 8 l 1,3,-1
 8 6 l 1,4,-1
 10 6 l 1,5,-1
 10 4 l 1,6,-1
 8 4 l 1,7,-1
 8 2 l 1,8,-1
 6 2 l 1,9,-1
 6 0 l 1,10,-1
 4 0 l 1,11,-1
 4 2 l 1,12,-1
 2 2 l 1,13,-1
 2 4 l 1,14,-1
 0 4 l 1,15,-1
 0 6 l 1,16,-1
 2 6 l 1,17,-1
 2 8 l 1,18,-1
 4 8 l 1,19,-1
 4 10 l 1,0,-1
8 2 m 1,20,-1
 8 0 l 1,21,-1
 10 0 l 1,22,-1
 10 2 l 1,23,-1
 8 2 l 1,20,-1
2 2 m 1,24,-1
 2 0 l 1,25,-1
 0 0 l 1,26,-1
 0 2 l 1,27,-1
 2 2 l 1,24,-1
8 10 m 1,28,-1
 8 8 l 1,29,-1
 10 8 l 1,30,-1
 10 10 l 1,31,-1
 8 10 l 1,28,-1
0 10 m 1,32,-1
 0 8 l 1,33,-1
 2 8 l 1,34,-1
 2 10 l 1,35,-1
 0 10 l 1,32,-1
EndSplineSet
Validated: 5
EndChar

StartChar: plus
Encoding: 43 43 14
Width: 12
GlyphClass: 2
Flags: W
LayerCount: 2
Fore
SplineSet
4 10 m 1,0,-1
 6 10 l 1,1,-1
 6 6 l 1,2,-1
 10 6 l 1,3,-1
 10 4 l 1,4,-1
 6 4 l 1,5,-1
 6 0 l 1,6,-1
 4 0 l 1,7,-1
 4 4 l 1,8,-1
 0 4 l 1,9,-1
 0 6 l 1,10,-1
 4 6 l 1,11,-1
 4 10 l 1,0,-1
EndSplineSet
Validated: 1
EndChar

StartChar: comma
Encoding: 44 44 15
Width: 12
GlyphClass: 2
Flags: W
LayerCount: 2
Fore
SplineSet
4 4 m 1,0,-1
 6 4 l 1,1,-1
 6 2 l 1,2,-1
 4 2 l 1,3,-1
 4 4 l 1,0,-1
2 0 m 1,4,-1
 2 2 l 1,5,-1
 4 2 l 1,6,-1
 4 0 l 1,7,-1
 2 0 l 1,4,-1
EndSplineSet
Validated: 5
EndChar

StartChar: hyphen
Encoding: 45 45 16
Width: 12
GlyphClass: 2
Flags: W
LayerCount: 2
Fore
SplineSet
0 6 m 1,0,-1
 10 6 l 1,1,-1
 10 4 l 1,2,-1
 0 4 l 1,3,-1
 0 6 l 1,0,-1
EndSplineSet
Validated: 1
EndChar

StartChar: period
Encoding: 46 46 17
Width: 12
GlyphClass: 2
Flags: W
LayerCount: 2
Fore
SplineSet
2 0 m 1,0,-1
 2 4 l 1,1,-1
 6 4 l 1,2,-1
 6 0 l 1,3,-1
 2 0 l 1,0,-1
EndSplineSet
Validated: 1
EndChar

StartChar: slash
Encoding: 47 47 18
Width: 12
GlyphClass: 2
Flags: W
LayerCount: 2
Fore
SplineSet
8 12 m 1,0,-1
 8 14 l 1,1,-1
 10 14 l 1,2,-1
 10 12 l 1,3,-1
 8 12 l 1,0,-1
6 8 m 1,4,-1
 6 12 l 1,5,-1
 8 12 l 1,6,-1
 8 8 l 1,7,-1
 6 8 l 1,4,-1
4 6 m 1,8,-1
 4 8 l 1,9,-1
 6 8 l 1,10,-1
 6 6 l 1,11,-1
 4 6 l 1,8,-1
2 2 m 1,12,-1
 2 6 l 1,13,-1
 4 6 l 1,14,-1
 4 2 l 1,15,-1
 2 2 l 1,12,-1
0 0 m 1,16,-1
 0 2 l 1,17,-1
 2 2 l 1,18,-1
 2 0 l 1,19,-1
 0 0 l 1,16,-1
EndSplineSet
Validated: 5
EndChar

StartChar: zero
Encoding: 48 48 19
Width: 12
GlyphClass: 2
Flags: W
LayerCount: 2
Fore
SplineSet
8 12 m 1,0,-1
 10 12 l 1,1,-1
 10 2 l 1,2,-1
 8 2 l 1,3,-1
 8 8 l 1,4,-1
 6 8 l 1,5,-1
 6 10 l 1,6,-1
 8 10 l 1,7,-1
 8 12 l 1,0,-1
0 12 m 1,8,-1
 2 12 l 1,9,-1
 2 6 l 1,10,-1
 4 6 l 1,11,-1
 4 4 l 1,12,-1
 2 4 l 1,13,-1
 2 2 l 1,14,-1
 0 2 l 1,15,-1
 0 12 l 1,8,-1
4 8 m 1,16,-1
 4 6 l 1,17,-1
 6 6 l 1,18,-1
 6 8 l 1,19,-1
 4 8 l 1,16,-1
2 0 m 1,20,-1
 2 2 l 1,21,-1
 8 2 l 1,22,-1
 8 0 l 1,23,-1
 2 0 l 1,20,-1
2 14 m 1,24,-1
 2 12 l 1,25,-1
 8 12 l 1,26,-1
 8 14 l 1,27,-1
 2 14 l 1,24,-1
EndSplineSet
Validated: 5
EndChar

StartChar: one
Encoding: 49 49 20
Width: 12
GlyphClass: 2
Flags: W
LayerCount: 2
Fore
SplineSet
4 14 m 1,0,-1
 6 14 l 1,1,-1
 6 2 l 1,2,-1
 10 2 l 1,3,-1
 10 0 l 1,4,-1
 0 0 l 1,5,-1
 0 2 l 1,6,-1
 4 2 l 1,7,-1
 4 10 l 1,8,-1
 0 10 l 1,9,-1
 0 12 l 1,10,-1
 4 12 l 1,11,-1
 4 14 l 1,0,-1
EndSplineSet
Validated: 1
EndChar

StartChar: two
Encoding: 50 50 21
Width: 12
GlyphClass: 2
Flags: W
LayerCount: 2
Fore
SplineSet
2 4 m 1,0,-1
 4 4 l 1,1,-1
 4 2 l 1,2,-1
 10 2 l 1,3,-1
 10 0 l 1,4,-1
 0 0 l 1,5,-1
 0 2 l 1,6,-1
 2 2 l 1,7,-1
 2 4 l 1,0,-1
4 6 m 1,8,-1
 4 4 l 1,9,-1
 6 4 l 1,10,-1
 6 6 l 1,11,-1
 4 6 l 1,8,-1
8 8 m 1,12,-1
 8 6 l 1,13,-1
 6 6 l 1,14,-1
 6 8 l 1,15,-1
 8 8 l 1,12,-1
8 12 m 1,16,-1
 8 8 l 1,17,-1
 10 8 l 1,18,-1
 10 12 l 1,19,-1
 8 12 l 1,16,-1
2 12 m 1,20,-1
 2 14 l 1,21,-1
 8 14 l 1,22,-1
 8 12 l 1,23,-1
 2 12 l 1,20,-1
0 12 m 1,24,-1
 0 10 l 1,25,-1
 2 10 l 1,26,-1
 2 12 l 1,27,-1
 0 12 l 1,24,-1
EndSplineSet
Validated: 5
EndChar

StartChar: three
Encoding: 51 51 22
Width: 12
GlyphClass: 2
Flags: W
LayerCount: 2
Fore
SplineSet
0 4 m 1,0,-1
 0 2 l 1,1,-1
 2 2 l 1,2,-1
 2 4 l 1,3,-1
 0 4 l 1,0,-1
8 2 m 1,4,-1
 8 0 l 1,5,-1
 2 0 l 1,6,-1
 2 2 l 1,7,-1
 8 2 l 1,4,-1
8 6 m 1,8,-1
 8 2 l 1,9,-1
 10 2 l 1,10,-1
 10 6 l 1,11,-1
 8 6 l 1,8,-1
8 8 m 1,12,-1
 8 6 l 1,13,-1
 4 6 l 1,14,-1
 4 8 l 1,15,-1
 8 8 l 1,12,-1
8 12 m 1,16,-1
 8 8 l 1,17,-1
 10 8 l 1,18,-1
 10 12 l 1,19,-1
 8 12 l 1,16,-1
2 14 m 1,20,-1
 2 12 l 1,21,-1
 8 12 l 1,22,-1
 8 14 l 1,23,-1
 2 14 l 1,20,-1
0 12 m 1,24,-1
 0 10 l 1,25,-1
 2 10 l 1,26,-1
 2 12 l 1,27,-1
 0 12 l 1,24,-1
EndSplineSet
Validated: 5
EndChar

StartChar: four
Encoding: 52 52 23
Width: 12
GlyphClass: 2
Flags: W
LayerCount: 2
Fore
SplineSet
2 10 m 1,0,-1
 2 8 l 1,1,-1
 4 8 l 1,2,-1
 4 10 l 1,3,-1
 2 10 l 1,0,-1
8 0 m 1,4,-1
 8 4 l 1,5,-1
 10 4 l 1,6,-1
 10 6 l 1,7,-1
 8 6 l 1,8,-1
 8 14 l 1,9,-1
 6 14 l 1,10,-1
 6 12 l 1,11,-1
 4 12 l 1,12,-1
 4 10 l 1,13,-1
 6 10 l 1,14,-1
 6 6 l 1,15,-1
 2 6 l 1,16,-1
 2 8 l 1,17,-1
 0 8 l 1,18,-1
 0 4 l 1,19,-1
 6 4 l 1,20,-1
 6 0 l 1,21,-1
 8 0 l 1,4,-1
EndSplineSet
Validated: 5
EndChar

StartChar: five
Encoding: 53 53 24
Width: 12
GlyphClass: 2
Flags: W
LayerCount: 2
Fore
SplineSet
2 10 m 1024,0,-1
0 14 m 1,1,-1
 10 14 l 1,2,-1
 10 12 l 1,3,-1
 2 12 l 1,4,-1
 2 10 l 1,5,-1
 8 10 l 1,6,-1
 8 8 l 1,7,-1
 0 8 l 1,8,-1
 0 14 l 1,1,-1
8 2 m 1,9,-1
 8 8 l 1,10,-1
 10 8 l 1,11,-1
 10 2 l 1,12,-1
 8 2 l 1,9,-1
2 2 m 1,13,-1
 2 0 l 1,14,-1
 8 0 l 1,15,-1
 8 2 l 1,16,-1
 2 2 l 1,13,-1
0 4 m 1,17,-1
 0 2 l 1,18,-1
 2 2 l 1,19,-1
 2 4 l 1,20,-1
 0 4 l 1,17,-1
EndSplineSet
Validated: 5
EndChar

StartChar: six
Encoding: 54 54 25
Width: 12
GlyphClass: 2
Flags: W
LayerCount: 2
Fore
SplineSet
0 10 m 1,0,-1
 2 10 l 1,1,-1
 2 8 l 1,2,-1
 8 8 l 1,3,-1
 8 6 l 1,4,-1
 2 6 l 1,5,-1
 2 2 l 1,6,-1
 0 2 l 1,7,-1
 0 10 l 1,0,-1
4 12 m 1,8,-1
 4 14 l 1,9,-1
 8 14 l 1,10,-1
 8 12 l 1,11,-1
 4 12 l 1,8,-1
2 10 m 1,12,-1
 2 12 l 1,13,-1
 4 12 l 1,14,-1
 4 10 l 1,15,-1
 2 10 l 1,12,-1
8 2 m 1,16,-1
 8 6 l 1,17,-1
 10 6 l 1,18,-1
 10 2 l 1,19,-1
 8 2 l 1,16,-1
2 0 m 1,20,-1
 2 2 l 1,21,-1
 8 2 l 1,22,-1
 8 0 l 1,23,-1
 2 0 l 1,20,-1
EndSplineSet
Validated: 5
EndChar

StartChar: seven
Encoding: 55 55 26
Width: 12
GlyphClass: 2
Flags: W
LayerCount: 2
Fore
SplineSet
0 14 m 1,0,-1
 10 14 l 1,1,-1
 10 8 l 1,2,-1
 8 8 l 1,3,-1
 8 12 l 1,4,-1
 0 12 l 1,5,-1
 0 14 l 1,0,-1
6 4 m 1,6,-1
 6 8 l 1,7,-1
 8 8 l 1,8,-1
 8 4 l 1,9,-1
 6 4 l 1,6,-1
4 0 m 1,10,-1
 4 4 l 1,11,-1
 6 4 l 1,12,-1
 6 0 l 1,13,-1
 4 0 l 1,10,-1
EndSplineSet
Validated: 5
EndChar

StartChar: eight
Encoding: 56 56 27
Width: 12
GlyphClass: 2
Flags: W
LayerCount: 2
Fore
SplineSet
8 12 m 1,0,-1
 8 8 l 1,1,-1
 10 8 l 1,2,-1
 10 12 l 1,3,-1
 8 12 l 1,0,-1
8 6 m 1,4,-1
 8 2 l 1,5,-1
 10 2 l 1,6,-1
 10 6 l 1,7,-1
 8 6 l 1,4,-1
0 6 m 1,8,-1
 0 2 l 1,9,-1
 2 2 l 1,10,-1
 2 6 l 1,11,-1
 0 6 l 1,8,-1
2 12 m 1,12,-1
 2 8 l 1,13,-1
 0 8 l 1,14,-1
 0 12 l 1,15,-1
 2 12 l 1,12,-1
2 8 m 1,16,-1
 2 6 l 1,17,-1
 8 6 l 1,18,-1
 8 8 l 1,19,-1
 2 8 l 1,16,-1
2 0 m 1,20,-1
 2 2 l 1,21,-1
 8 2 l 1,22,-1
 8 0 l 1,23,-1
 2 0 l 1,20,-1
2 14 m 1,24,-1
 2 12 l 1,25,-1
 8 12 l 1,26,-1
 8 14 l 1,27,-1
 2 14 l 1,24,-1
EndSplineSet
Validated: 5
EndChar

StartChar: nine
Encoding: 57 57 28
Width: 12
GlyphClass: 2
Flags: W
LayerCount: 2
Fore
SplineSet
8 12 m 1,0,-1
 10 12 l 1,1,-1
 10 4 l 1,2,-1
 8 4 l 1,3,-1
 8 6 l 1,4,-1
 2 6 l 1,5,-1
 2 8 l 1,6,-1
 8 8 l 1,7,-1
 8 12 l 1,0,-1
2 12 m 1,8,-1
 2 8 l 1,9,-1
 0 8 l 1,10,-1
 0 12 l 1,11,-1
 2 12 l 1,8,-1
2 14 m 1,12,-1
 2 12 l 1,13,-1
 8 12 l 1,14,-1
 8 14 l 1,15,-1
 2 14 l 1,12,-1
6 2 m 1,16,-1
 6 4 l 1,17,-1
 8 4 l 1,18,-1
 8 2 l 1,19,-1
 6 2 l 1,16,-1
2 0 m 1,20,-1
 2 2 l 1,21,-1
 6 2 l 1,22,-1
 6 0 l 1,23,-1
 2 0 l 1,20,-1
EndSplineSet
Validated: 5
EndChar

StartChar: colon
Encoding: 58 58 29
Width: 12
GlyphClass: 2
Flags: W
LayerCount: 2
Fore
SplineSet
2 6 m 1,0,-1
 2 10 l 1,1,-1
 6 10 l 1,2,-1
 6 6 l 1,3,-1
 2 6 l 1,0,-1
2 0 m 1,4,-1
 2 4 l 1,5,-1
 6 4 l 1,6,-1
 6 0 l 1,7,-1
 2 0 l 1,4,-1
EndSplineSet
Validated: 1
EndChar

StartChar: semicolon
Encoding: 59 59 30
Width: 12
GlyphClass: 2
Flags: W
LayerCount: 2
Fore
SplineSet
4 2 m 1,0,-1
 4 4 l 1,1,-1
 6 4 l 1,2,-1
 6 2 l 1,3,-1
 4 2 l 1,0,-1
2 0 m 1,4,-1
 2 2 l 1,5,-1
 4 2 l 1,6,-1
 4 0 l 1,7,-1
 2 0 l 1,4,-1
2 10 m 1,8,-1
 2 6 l 1,9,-1
 6 6 l 1,10,-1
 6 10 l 1,11,-1
 2 10 l 1,8,-1
EndSplineSet
Validated: 5
EndChar

StartChar: less
Encoding: 60 60 31
Width: 12
GlyphClass: 2
Flags: W
LayerCount: 2
Fore
SplineSet
6 0 m 1,0,-1
 6 2 l 1,1,-1
 10 2 l 1,2,-1
 10 0 l 1,3,-1
 6 0 l 1,0,-1
2 4 m 1,4,-1
 2 2 l 1,5,-1
 6 2 l 1,6,-1
 6 4 l 1,7,-1
 2 4 l 1,4,-1
6 8 m 1,8,-1
 6 10 l 1,9,-1
 10 10 l 1,10,-1
 10 8 l 1,11,-1
 6 8 l 1,8,-1
2 6 m 1,12,-1
 2 8 l 1,13,-1
 6 8 l 1,14,-1
 6 6 l 1,15,-1
 2 6 l 1,12,-1
0 6 m 1,16,-1
 0 4 l 1,17,-1
 2 4 l 1,18,-1
 2 6 l 1,19,-1
 0 6 l 1,16,-1
EndSplineSet
Validated: 5
EndChar

StartChar: equal
Encoding: 61 61 32
Width: 12
GlyphClass: 2
Flags: W
LayerCount: 2
Fore
SplineSet
0 4 m 1,0,-1
 10 4 l 1,1,-1
 10 2 l 1,2,-1
 0 2 l 1,3,-1
 0 4 l 1,0,-1
0 8 m 1,4,-1
 10 8 l 1,5,-1
 10 6 l 1,6,-1
 0 6 l 1,7,-1
 0 8 l 1,4,-1
EndSplineSet
Validated: 1
EndChar

StartChar: greater
Encoding: 62 62 33
Width: 12
GlyphClass: 2
Flags: W
LayerCount: 2
Fore
SplineSet
4 2 m 1,0,-1
 4 0 l 1,1,-1
 0 0 l 1,2,-1
 0 2 l 1,3,-1
 4 2 l 1,0,-1
8 4 m 1,4,-1
 8 2 l 1,5,-1
 4 2 l 1,6,-1
 4 4 l 1,7,-1
 8 4 l 1,4,-1
8 4 m 1,8,-1
 8 6 l 1,9,-1
 10 6 l 1,10,-1
 10 4 l 1,11,-1
 8 4 l 1,8,-1
4 8 m 1,12,-1
 4 6 l 1,13,-1
 8 6 l 1,14,-1
 8 8 l 1,15,-1
 4 8 l 1,12,-1
0 10 m 1,16,-1
 0 8 l 1,17,-1
 4 8 l 1,18,-1
 4 10 l 1,19,-1
 0 10 l 1,16,-1
EndSplineSet
Validated: 5
EndChar

StartChar: question
Encoding: 63 63 34
Width: 12
GlyphClass: 2
Flags: W
LayerCount: 2
Fore
SplineSet
2 12 m 1,0,-1
 2 10 l 1,1,-1
 0 10 l 1,2,-1
 0 12 l 1,3,-1
 2 12 l 1,0,-1
8 14 m 1,4,-1
 8 12 l 1,5,-1
 2 12 l 1,6,-1
 2 14 l 1,7,-1
 8 14 l 1,4,-1
8 8 m 1,8,-1
 8 12 l 1,9,-1
 10 12 l 1,10,-1
 10 8 l 1,11,-1
 8 8 l 1,8,-1
6 6 m 1,12,-1
 6 8 l 1,13,-1
 8 8 l 1,14,-1
 8 6 l 1,15,-1
 6 6 l 1,12,-1
6 4 m 1,16,-1
 6 6 l 1,17,-1
 4 6 l 1,18,-1
 4 4 l 1,19,-1
 6 4 l 1,16,-1
4 0 m 1,20,-1
 4 2 l 1,21,-1
 6 2 l 1,22,-1
 6 0 l 1,23,-1
 4 0 l 1,20,-1
EndSplineSet
Validated: 5
EndChar

StartChar: at
Encoding: 64 64 35
Width: 12
GlyphClass: 2
Flags: W
LayerCount: 2
Fore
SplineSet
2 8 m 1,0,-1
 6 8 l 1,1,-1
 6 4 l 1,2,-1
 4 4 l 1,3,-1
 4 6 l 1,4,-1
 2 6 l 1,5,-1
 2 8 l 1,0,-1
2 2 m 1,6,-1
 2 6 l 1,7,-1
 0 6 l 1,8,-1
 0 2 l 1,9,-1
 2 2 l 1,6,-1
8 2 m 1,10,-1
 8 0 l 1,11,-1
 2 0 l 1,12,-1
 2 2 l 1,13,-1
 8 2 l 1,10,-1
8 12 m 1,14,-1
 10 12 l 1,15,-1
 10 2 l 1,16,-1
 8 2 l 1,17,-1
 8 12 l 1,14,-1
2 14 m 1,18,-1
 2 12 l 1,19,-1
 8 12 l 1,20,-1
 8 14 l 1,21,-1
 2 14 l 1,18,-1
0 12 m 1,22,-1
 0 10 l 1,23,-1
 2 10 l 1,24,-1
 2 12 l 1,25,-1
 0 12 l 1,22,-1
EndSplineSet
Validated: 5
EndChar

StartChar: A
Encoding: 65 65 36
Width: 12
GlyphClass: 2
Flags: W
LayerCount: 2
Fore
SplineSet
0 12 m 1,0,-1
 2 12 l 1,1,-1
 2 8 l 1,2,-1
 8 8 l 1,3,-1
 8 12 l 1,4,-1
 10 12 l 1,5,-1
 10 0 l 1,6,-1
 8 0 l 1,7,-1
 8 6 l 1,8,-1
 2 6 l 1,9,-1
 2 0 l 1,10,-1
 0 0 l 1,11,-1
 0 12 l 1,0,-1
2 14 m 1,12,-1
 2 12 l 1,13,-1
 8 12 l 1,14,-1
 8 14 l 1,15,-1
 2 14 l 1,12,-1
EndSplineSet
Validated: 5
EndChar

StartChar: B
Encoding: 66 66 37
Width: 12
GlyphClass: 2
Flags: W
LayerCount: 2
Fore
SplineSet
0 14 m 1,0,-1
 8 14 l 1,1,-1
 8 12 l 1,2,-1
 2 12 l 1,3,-1
 2 8 l 1,4,-1
 8 8 l 1,5,-1
 8 6 l 1,6,-1
 2 6 l 1,7,-1
 2 2 l 1,8,-1
 8 2 l 1,9,-1
 8 0 l 1,10,-1
 0 0 l 1,11,-1
 0 14 l 1,0,-1
10 6 m 1,12,-1
 10 2 l 1,13,-1
 8 2 l 1,14,-1
 8 6 l 1,15,-1
 10 6 l 1,12,-1
10 12 m 1,16,-1
 10 8 l 1,17,-1
 8 8 l 1,18,-1
 8 12 l 1,19,-1
 10 12 l 1,16,-1
EndSplineSet
Validated: 5
EndChar

StartChar: C
Encoding: 67 67 38
Width: 12
GlyphClass: 2
Flags: W
LayerCount: 2
Fore
SplineSet
8 4 m 1,0,-1
 8 2 l 1,1,-1
 10 2 l 1,2,-1
 10 4 l 1,3,-1
 8 4 l 1,0,-1
8 12 m 1,4,-1
 8 10 l 1,5,-1
 10 10 l 1,6,-1
 10 12 l 1,7,-1
 8 12 l 1,4,-1
2 2 m 1,8,-1
 2 0 l 1,9,-1
 8 0 l 1,10,-1
 8 2 l 1,11,-1
 2 2 l 1,8,-1
2 14 m 1,12,-1
 2 12 l 1,13,-1
 8 12 l 1,14,-1
 8 14 l 1,15,-1
 2 14 l 1,12,-1
0 12 m 1,16,-1
 2 12 l 1,17,-1
 2 2 l 1,18,-1
 0 2 l 1,19,-1
 0 12 l 1,16,-1
EndSplineSet
Validated: 5
EndChar

StartChar: D
Encoding: 68 68 39
Width: 12
GlyphClass: 2
Flags: W
LayerCount: 2
Fore
SplineSet
0 14 m 1,0,-1
 8 14 l 1,1,-1
 8 12 l 1,2,-1
 2 12 l 1,3,-1
 2 2 l 1,4,-1
 8 2 l 1,5,-1
 8 0 l 1,6,-1
 0 0 l 1,7,-1
 0 14 l 1,0,-1
8 12 m 1,8,-1
 10 12 l 1,9,-1
 10 2 l 1,10,-1
 8 2 l 1,11,-1
 8 12 l 1,8,-1
EndSplineSet
Validated: 5
EndChar

StartChar: E
Encoding: 69 69 40
Width: 12
GlyphClass: 2
Flags: W
LayerCount: 2
Fore
SplineSet
0 14 m 1,0,-1
 10 14 l 1,1,-1
 10 12 l 1,2,-1
 2 12 l 1,3,-1
 2 8 l 1,4,-1
 8 8 l 1,5,-1
 8 6 l 1,6,-1
 2 6 l 1,7,-1
 2 2 l 1,8,-1
 10 2 l 1,9,-1
 10 0 l 1,10,-1
 0 0 l 1,11,-1
 0 14 l 1,0,-1
EndSplineSet
Validated: 1
EndChar

StartChar: F
Encoding: 70 70 41
Width: 12
GlyphClass: 2
Flags: W
LayerCount: 2
Fore
SplineSet
0 14 m 1,0,-1
 10 14 l 1,1,-1
 10 12 l 1,2,-1
 2 12 l 1,3,-1
 2 8 l 1,4,-1
 8 8 l 1,5,-1
 8 6 l 1,6,-1
 2 6 l 1,7,-1
 2 0 l 1,8,-1
 0 0 l 1,9,-1
 0 14 l 1,0,-1
EndSplineSet
Validated: 1
EndChar

StartChar: G
Encoding: 71 71 42
Width: 12
GlyphClass: 2
Flags: W
LayerCount: 2
Fore
SplineSet
10 2 m 1,0,-1
 8 2 l 1,1,-1
 8 6 l 1,2,-1
 4 6 l 1,3,-1
 4 8 l 1,4,-1
 10 8 l 1,5,-1
 10 2 l 1,0,-1
2 0 m 1,6,-1
 2 2 l 1,7,-1
 8 2 l 1,8,-1
 8 0 l 1,9,-1
 2 0 l 1,6,-1
2 12 m 1,10,-1
 2 2 l 1,11,-1
 0 2 l 1,12,-1
 0 12 l 1,13,-1
 2 12 l 1,10,-1
8 12 m 1,14,-1
 8 10 l 1,15,-1
 10 10 l 1,16,-1
 10 12 l 1,17,-1
 8 12 l 1,14,-1
2 14 m 1,18,-1
 2 12 l 1,19,-1
 8 12 l 1,20,-1
 8 14 l 1,21,-1
 2 14 l 1,18,-1
EndSplineSet
Validated: 5
EndChar

StartChar: H
Encoding: 72 72 43
Width: 12
GlyphClass: 2
Flags: W
LayerCount: 2
Fore
SplineSet
0 14 m 1,0,-1
 2 14 l 1,1,-1
 2 8 l 1,2,-1
 8 8 l 1,3,-1
 8 14 l 1,4,-1
 10 14 l 1,5,-1
 10 0 l 1,6,-1
 8 0 l 1,7,-1
 8 6 l 1,8,-1
 2 6 l 1,9,-1
 2 0 l 1,10,-1
 0 0 l 1,11,-1
 0 14 l 1,0,-1
EndSplineSet
Validated: 1
EndChar

StartChar: I
Encoding: 73 73 44
Width: 12
GlyphClass: 2
Flags: W
LayerCount: 2
Fore
SplineSet
0 14 m 1,0,-1
 10 14 l 1,1,-1
 10 12 l 1,2,-1
 6 12 l 1,3,-1
 6 2 l 1,4,-1
 10 2 l 1,5,-1
 10 0 l 1,6,-1
 0 0 l 1,7,-1
 0 2 l 1,8,-1
 4 2 l 1,9,-1
 4 12 l 1,10,-1
 0 12 l 1,11,-1
 0 14 l 1,0,-1
EndSplineSet
Validated: 1
EndChar

StartChar: J
Encoding: 74 74 45
Width: 12
GlyphClass: 2
Flags: W
LayerCount: 2
Fore
SplineSet
4 14 m 1,0,-1
 10 14 l 1,1,-1
 10 2 l 1,2,-1
 8 2 l 1,3,-1
 8 12 l 1,4,-1
 4 12 l 1,5,-1
 4 14 l 1,0,-1
0 4 m 1,6,-1
 0 2 l 1,7,-1
 2 2 l 1,8,-1
 2 4 l 1,9,-1
 0 4 l 1,6,-1
8 2 m 1,10,-1
 8 0 l 1,11,-1
 2 0 l 1,12,-1
 2 2 l 1,13,-1
 8 2 l 1,10,-1
EndSplineSet
Validated: 5
EndChar

StartChar: K
Encoding: 75 75 46
Width: 12
GlyphClass: 2
Flags: W
LayerCount: 2
Fore
SplineSet
8 2 m 1,0,-1
 8 0 l 1,1,-1
 10 0 l 1,2,-1
 10 2 l 1,3,-1
 8 2 l 1,0,-1
6 4 m 1,4,-1
 6 2 l 1,5,-1
 8 2 l 1,6,-1
 8 4 l 1,7,-1
 6 4 l 1,4,-1
4 6 m 1,8,-1
 4 4 l 1,9,-1
 6 4 l 1,10,-1
 6 6 l 1,11,-1
 4 6 l 1,8,-1
8 12 m 1,12,-1
 8 14 l 1,13,-1
 10 14 l 1,14,-1
 10 12 l 1,15,-1
 8 12 l 1,12,-1
6 10 m 1,16,-1
 6 12 l 1,17,-1
 8 12 l 1,18,-1
 8 10 l 1,19,-1
 6 10 l 1,16,-1
4 8 m 1,20,-1
 4 10 l 1,21,-1
 6 10 l 1,22,-1
 6 8 l 1,23,-1
 4 8 l 1,20,-1
0 14 m 1,24,-1
 2 14 l 1,25,-1
 2 8 l 1,26,-1
 4 8 l 1,27,-1
 4 6 l 1,28,-1
 2 6 l 1,29,-1
 2 0 l 1,30,-1
 0 0 l 1,31,-1
 0 14 l 1,24,-1
EndSplineSet
Validated: 5
EndChar

StartChar: L
Encoding: 76 76 47
Width: 12
GlyphClass: 2
Flags: W
LayerCount: 2
Fore
SplineSet
0 14 m 1,0,-1
 2 14 l 1,1,-1
 2 2 l 1,2,-1
 10 2 l 1,3,-1
 10 0 l 1,4,-1
 0 0 l 1,5,-1
 0 14 l 1,0,-1
EndSplineSet
Validated: 1
EndChar

StartChar: M
Encoding: 77 77 48
Width: 12
GlyphClass: 2
Flags: W
LayerCount: 2
Fore
SplineSet
4 10 m 1,0,-1
 4 6 l 1,1,-1
 6 6 l 1,2,-1
 6 10 l 1,3,-1
 4 10 l 1,0,-1
10 0 m 1,4,-1
 8 0 l 1,5,-1
 8 10 l 1,6,-1
 6 10 l 1,7,-1
 6 12 l 1,8,-1
 8 12 l 1,9,-1
 8 14 l 1,10,-1
 10 14 l 1,11,-1
 10 0 l 1,4,-1
0 0 m 1,12,-1
 0 14 l 1,13,-1
 2 14 l 1,14,-1
 2 12 l 1,15,-1
 4 12 l 1,16,-1
 4 10 l 1,17,-1
 2 10 l 1,18,-1
 2 0 l 1,19,-1
 0 0 l 1,12,-1
EndSplineSet
Validated: 5
EndChar

StartChar: N
Encoding: 78 78 49
Width: 12
GlyphClass: 2
Flags: W
LayerCount: 2
Fore
SplineSet
4 8 m 1,0,-1
 4 6 l 1,1,-1
 6 6 l 1,2,-1
 6 8 l 1,3,-1
 4 8 l 1,0,-1
8 14 m 1,4,-1
 10 14 l 1,5,-1
 10 0 l 1,6,-1
 8 0 l 1,7,-1
 8 2 l 1,8,-1
 6 2 l 1,9,-1
 6 6 l 1,10,-1
 8 6 l 1,11,-1
 8 14 l 1,4,-1
0 14 m 1,12,-1
 2 14 l 1,13,-1
 2 12 l 1,14,-1
 4 12 l 1,15,-1
 4 8 l 1,16,-1
 2 8 l 1,17,-1
 2 0 l 1,18,-1
 0 0 l 1,19,-1
 0 14 l 1,12,-1
EndSplineSet
Validated: 5
EndChar

StartChar: O
Encoding: 79 79 50
Width: 12
GlyphClass: 2
Flags: W
LayerCount: 2
Fore
SplineSet
8 2 m 1,0,-1
 8 12 l 1,1,-1
 10 12 l 1,2,-1
 10 2 l 1,3,-1
 8 2 l 1,0,-1
2 2 m 1,4,-1
 2 0 l 1,5,-1
 8 0 l 1,6,-1
 8 2 l 1,7,-1
 2 2 l 1,4,-1
0 12 m 1,8,-1
 2 12 l 1,9,-1
 2 2 l 1,10,-1
 0 2 l 1,11,-1
 0 12 l 1,8,-1
2 14 m 1,12,-1
 2 12 l 1,13,-1
 8 12 l 1,14,-1
 8 14 l 1,15,-1
 2 14 l 1,12,-1
EndSplineSet
Validated: 5
EndChar

StartChar: P
Encoding: 80 80 51
Width: 12
GlyphClass: 2
Flags: W
LayerCount: 2
Fore
SplineSet
0 14 m 1,0,-1
 8 14 l 1,1,-1
 8 12 l 1,2,-1
 2 12 l 1,3,-1
 2 8 l 1,4,-1
 8 8 l 1,5,-1
 8 6 l 1,6,-1
 2 6 l 1,7,-1
 2 0 l 1,8,-1
 0 0 l 1,9,-1
 0 14 l 1,0,-1
8 12 m 1,10,-1
 8 8 l 1,11,-1
 10 8 l 1,12,-1
 10 12 l 1,13,-1
 8 12 l 1,10,-1
EndSplineSet
Validated: 5
EndChar

StartChar: Q
Encoding: 81 81 52
Width: 12
GlyphClass: 2
Flags: W
LayerCount: 2
Fore
SplineSet
8 4 m 1,0,-1
 8 12 l 1,1,-1
 10 12 l 1,2,-1
 10 4 l 1,3,-1
 8 4 l 1,0,-1
4 6 m 1,4,-1
 4 4 l 1,5,-1
 6 4 l 1,6,-1
 6 6 l 1,7,-1
 4 6 l 1,4,-1
8 2 m 1,8,-1
 8 0 l 1,9,-1
 10 0 l 1,10,-1
 10 2 l 1,11,-1
 8 2 l 1,8,-1
6 4 m 1,12,-1
 6 2 l 1,13,-1
 8 2 l 1,14,-1
 8 4 l 1,15,-1
 6 4 l 1,12,-1
2 2 m 1,16,-1
 2 0 l 1,17,-1
 6 0 l 1,18,-1
 6 2 l 1,19,-1
 2 2 l 1,16,-1
2 12 m 1,20,-1
 2 2 l 1,21,-1
 0 2 l 1,22,-1
 0 12 l 1,23,-1
 2 12 l 1,20,-1
2 14 m 1,24,-1
 2 12 l 1,25,-1
 8 12 l 1,26,-1
 8 14 l 1,27,-1
 2 14 l 1,24,-1
EndSplineSet
Validated: 5
EndChar

StartChar: R
Encoding: 82 82 53
Width: 12
GlyphClass: 2
Flags: W
LayerCount: 2
Fore
SplineSet
0 14 m 1,0,-1
 8 14 l 1,1,-1
 8 12 l 1,2,-1
 2 12 l 1,3,-1
 2 8 l 1,4,-1
 8 8 l 1,5,-1
 8 6 l 1,6,-1
 2 6 l 1,7,-1
 2 0 l 1,8,-1
 0 0 l 1,9,-1
 0 14 l 1,0,-1
8 6 m 1,10,-1
 8 0 l 1,11,-1
 10 0 l 1,12,-1
 10 6 l 1,13,-1
 8 6 l 1,10,-1
10 12 m 1,14,-1
 10 8 l 1,15,-1
 8 8 l 1,16,-1
 8 12 l 1,17,-1
 10 12 l 1,14,-1
EndSplineSet
Validated: 5
EndChar

StartChar: S
Encoding: 83 83 54
Width: 12
GlyphClass: 2
Flags: W
LayerCount: 2
Fore
SplineSet
8 12 m 1,0,-1
 8 10 l 1,1,-1
 10 10 l 1,2,-1
 10 12 l 1,3,-1
 8 12 l 1,0,-1
0 4 m 1,4,-1
 0 2 l 1,5,-1
 2 2 l 1,6,-1
 2 4 l 1,7,-1
 0 4 l 1,4,-1
8 6 m 1,8,-1
 8 2 l 1,9,-1
 10 2 l 1,10,-1
 10 6 l 1,11,-1
 8 6 l 1,8,-1
2 12 m 1,12,-1
 2 8 l 1,13,-1
 0 8 l 1,14,-1
 0 12 l 1,15,-1
 2 12 l 1,12,-1
2 8 m 1,16,-1
 2 6 l 1,17,-1
 8 6 l 1,18,-1
 8 8 l 1,19,-1
 2 8 l 1,16,-1
2 0 m 1,20,-1
 2 2 l 1,21,-1
 8 2 l 1,22,-1
 8 0 l 1,23,-1
 2 0 l 1,20,-1
2 14 m 1,24,-1
 2 12 l 1,25,-1
 8 12 l 1,26,-1
 8 14 l 1,27,-1
 2 14 l 1,24,-1
EndSplineSet
Validated: 5
EndChar

StartChar: T
Encoding: 84 84 55
Width: 12
GlyphClass: 2
Flags: W
LayerCount: 2
Fore
SplineSet
0 14 m 1,0,-1
 10 14 l 1,1,-1
 10 12 l 1,2,-1
 6 12 l 1,3,-1
 6 0 l 1,4,-1
 4 0 l 1,5,-1
 4 12 l 1,6,-1
 0 12 l 1,7,-1
 0 14 l 1,0,-1
EndSplineSet
Validated: 1
EndChar

StartChar: U
Encoding: 85 85 56
Width: 12
GlyphClass: 2
Flags: W
LayerCount: 2
Fore
SplineSet
8 2 m 1,0,-1
 8 14 l 1,1,-1
 10 14 l 1,2,-1
 10 2 l 1,3,-1
 8 2 l 1,0,-1
2 2 m 1,4,-1
 2 0 l 1,5,-1
 8 0 l 1,6,-1
 8 2 l 1,7,-1
 2 2 l 1,4,-1
0 14 m 1,8,-1
 2 14 l 1,9,-1
 2 2 l 1,10,-1
 0 2 l 1,11,-1
 0 14 l 1,8,-1
EndSplineSet
Validated: 5
EndChar

StartChar: V
Encoding: 86 86 57
Width: 12
GlyphClass: 2
Flags: W
LayerCount: 2
Fore
SplineSet
4 4 m 1,0,-1
 4 0 l 1,1,-1
 6 0 l 1,2,-1
 6 4 l 1,3,-1
 4 4 l 1,0,-1
6 10 m 1,4,-1
 6 4 l 1,5,-1
 8 4 l 1,6,-1
 8 10 l 1,7,-1
 6 10 l 1,4,-1
2 10 m 1,8,-1
 2 4 l 1,9,-1
 4 4 l 1,10,-1
 4 10 l 1,11,-1
 2 10 l 1,8,-1
8 14 m 1,12,-1
 8 10 l 1,13,-1
 10 10 l 1,14,-1
 10 14 l 1,15,-1
 8 14 l 1,12,-1
0 14 m 1,16,-1
 0 10 l 1,17,-1
 2 10 l 1,18,-1
 2 14 l 1,19,-1
 0 14 l 1,16,-1
EndSplineSet
Validated: 5
EndChar

StartChar: W
Encoding: 87 87 58
Width: 12
GlyphClass: 2
Flags: W
LayerCount: 2
Fore
SplineSet
4 4 m 1,0,-1
 4 8 l 1,1,-1
 6 8 l 1,2,-1
 6 4 l 1,3,-1
 4 4 l 1,0,-1
8 14 m 1,4,-1
 10 14 l 1,5,-1
 10 0 l 1,6,-1
 8 0 l 1,7,-1
 8 2 l 1,8,-1
 6 2 l 1,9,-1
 6 4 l 1,10,-1
 8 4 l 1,11,-1
 8 14 l 1,4,-1
0 14 m 1,12,-1
 2 14 l 1,13,-1
 2 4 l 1,14,-1
 4 4 l 1,15,-1
 4 2 l 1,16,-1
 2 2 l 1,17,-1
 2 0 l 1,18,-1
 0 0 l 1,19,-1
 0 14 l 1,12,-1
EndSplineSet
Validated: 5
EndChar

StartChar: X
Encoding: 88 88 59
Width: 12
GlyphClass: 2
Flags: W
LayerCount: 2
Fore
SplineSet
2 4 m 1,0,-1
 2 0 l 1,1,-1
 0 0 l 1,2,-1
 0 4 l 1,3,-1
 2 4 l 1,0,-1
4 8 m 1,4,-1
 4 6 l 1,5,-1
 6 6 l 1,6,-1
 6 8 l 1,7,-1
 4 8 l 1,4,-1
8 4 m 1,8,-1
 8 0 l 1,9,-1
 10 0 l 1,10,-1
 10 4 l 1,11,-1
 8 4 l 1,8,-1
6 6 m 1,12,-1
 6 4 l 1,13,-1
 8 4 l 1,14,-1
 8 6 l 1,15,-1
 6 6 l 1,12,-1
2 6 m 1,16,-1
 2 4 l 1,17,-1
 4 4 l 1,18,-1
 4 6 l 1,19,-1
 2 6 l 1,16,-1
8 14 m 1,20,-1
 8 10 l 1,21,-1
 10 10 l 1,22,-1
 10 14 l 1,23,-1
 8 14 l 1,20,-1
6 10 m 1,24,-1
 6 8 l 1,25,-1
 8 8 l 1,26,-1
 8 10 l 1,27,-1
 6 10 l 1,24,-1
2 10 m 1,28,-1
 2 8 l 1,29,-1
 4 8 l 1,30,-1
 4 10 l 1,31,-1
 2 10 l 1,28,-1
0 14 m 1,32,-1
 0 10 l 1,33,-1
 2 10 l 1,34,-1
 2 14 l 1,35,-1
 0 14 l 1,32,-1
EndSplineSet
Validated: 5
EndChar

StartChar: Y
Encoding: 89 89 60
Width: 12
GlyphClass: 2
Flags: W
LayerCount: 2
Fore
SplineSet
4 8 m 1,0,-1
 6 8 l 1,1,-1
 6 0 l 1,2,-1
 4 0 l 1,3,-1
 4 8 l 1,0,-1
6 10 m 1,4,-1
 6 8 l 1,5,-1
 8 8 l 1,6,-1
 8 10 l 1,7,-1
 6 10 l 1,4,-1
2 10 m 1,8,-1
 2 8 l 1,9,-1
 4 8 l 1,10,-1
 4 10 l 1,11,-1
 2 10 l 1,8,-1
8 14 m 1,12,-1
 8 10 l 1,13,-1
 10 10 l 1,14,-1
 10 14 l 1,15,-1
 8 14 l 1,12,-1
0 14 m 1,16,-1
 0 10 l 1,17,-1
 2 10 l 1,18,-1
 2 14 l 1,19,-1
 0 14 l 1,16,-1
EndSplineSet
Validated: 5
EndChar

StartChar: Z
Encoding: 90 90 61
Width: 12
GlyphClass: 2
Flags: W
LayerCount: 2
Fore
SplineSet
0 4 m 1,0,-1
 2 4 l 1,1,-1
 2 2 l 1,2,-1
 10 2 l 1,3,-1
 10 0 l 1,4,-1
 0 0 l 1,5,-1
 0 4 l 1,0,-1
0 14 m 1,6,-1
 10 14 l 1,7,-1
 10 10 l 1,8,-1
 8 10 l 1,9,-1
 8 12 l 1,10,-1
 0 12 l 1,11,-1
 0 14 l 1,6,-1
6 8 m 1,12,-1
 6 10 l 1,13,-1
 8 10 l 1,14,-1
 8 8 l 1,15,-1
 6 8 l 1,12,-1
4 6 m 1,16,-1
 4 4 l 1,17,-1
 2 4 l 1,18,-1
 2 6 l 1,19,-1
 4 6 l 1,16,-1
4 8 m 1,20,-1
 4 6 l 1,21,-1
 6 6 l 1,22,-1
 6 8 l 1,23,-1
 4 8 l 1,20,-1
EndSplineSet
Validated: 5
EndChar

StartChar: bracketleft
Encoding: 91 91 62
Width: 12
GlyphClass: 2
Flags: W
LayerCount: 2
Fore
SplineSet
2 14 m 1,0,-1
 8 14 l 1,1,-1
 8 12 l 1,2,-1
 4 12 l 1,3,-1
 4 2 l 1,4,-1
 8 2 l 1,5,-1
 8 0 l 1,6,-1
 2 0 l 1,7,-1
 2 14 l 1,0,-1
EndSplineSet
Validated: 1
EndChar

StartChar: backslash
Encoding: 92 92 63
Width: 12
GlyphClass: 2
Flags: W
LayerCount: 2
Fore
SplineSet
8 2 m 1,0,-1
 8 0 l 1,1,-1
 10 0 l 1,2,-1
 10 2 l 1,3,-1
 8 2 l 1,0,-1
6 6 m 1,4,-1
 6 2 l 1,5,-1
 8 2 l 1,6,-1
 8 6 l 1,7,-1
 6 6 l 1,4,-1
4 8 m 1,8,-1
 4 6 l 1,9,-1
 6 6 l 1,10,-1
 6 8 l 1,11,-1
 4 8 l 1,8,-1
2 12 m 1,12,-1
 2 8 l 1,13,-1
 4 8 l 1,14,-1
 4 12 l 1,15,-1
 2 12 l 1,12,-1
0 14 m 1,16,-1
 0 12 l 1,17,-1
 2 12 l 1,18,-1
 2 14 l 1,19,-1
 0 14 l 1,16,-1
EndSplineSet
Validated: 5
EndChar

StartChar: bracketright
Encoding: 93 93 64
Width: 12
GlyphClass: 2
Flags: W
LayerCount: 2
Fore
SplineSet
2 14 m 1,0,-1
 8 14 l 1,1,-1
 8 0 l 1,2,-1
 2 0 l 1,3,-1
 2 2 l 1,4,-1
 6 2 l 1,5,-1
 6 12 l 1,6,-1
 2 12 l 1,7,-1
 2 14 l 1,0,-1
EndSplineSet
Validated: 1
EndChar

StartChar: asciicircum
Encoding: 94 94 65
Width: 12
GlyphClass: 2
Flags: W
LayerCount: 2
Fore
SplineSet
8 10 m 1,0,-1
 8 8 l 1,1,-1
 10 8 l 1,2,-1
 10 10 l 1,3,-1
 8 10 l 1,0,-1
2 10 m 1,4,-1
 2 8 l 1,5,-1
 0 8 l 1,6,-1
 0 10 l 1,7,-1
 2 10 l 1,4,-1
6 12 m 1,8,-1
 6 10 l 1,9,-1
 8 10 l 1,10,-1
 8 12 l 1,11,-1
 6 12 l 1,8,-1
4 12 m 1,12,-1
 4 10 l 1,13,-1
 2 10 l 1,14,-1
 2 12 l 1,15,-1
 4 12 l 1,12,-1
4 14 m 1,16,-1
 4 12 l 1,17,-1
 6 12 l 1,18,-1
 6 14 l 1,19,-1
 4 14 l 1,16,-1
EndSplineSet
Validated: 5
EndChar

StartChar: underscore
Encoding: 95 95 66
Width: 12
GlyphClass: 2
Flags: W
LayerCount: 2
Fore
SplineSet
0 2 m 1,0,-1
 10 2 l 1,1,-1
 10 0 l 1,2,-1
 0 0 l 1,3,-1
 0 2 l 1,0,-1
EndSplineSet
Validated: 1
EndChar

StartChar: grave
Encoding: 96 96 67
Width: 12
GlyphClass: 2
Flags: W
LayerCount: 2
Fore
SplineSet
6 12 m 1,0,-1
 6 10 l 1,1,-1
 8 10 l 1,2,-1
 8 12 l 1,3,-1
 6 12 l 1,0,-1
4 14 m 1,4,-1
 4 12 l 1,5,-1
 6 12 l 1,6,-1
 6 14 l 1,7,-1
 4 14 l 1,4,-1
EndSplineSet
Validated: 5
EndChar

StartChar: a
Encoding: 97 97 68
Width: 12
GlyphClass: 2
Flags: W
LayerCount: 2
Fore
SplineSet
8 8 m 1,0,-1
 10 8 l 1,1,-1
 10 0 l 1,2,-1
 2 0 l 1,3,-1
 2 2 l 1,4,-1
 8 2 l 1,5,-1
 8 4 l 1,6,-1
 2 4 l 1,7,-1
 2 6 l 1,8,-1
 8 6 l 1,9,-1
 8 8 l 1,0,-1
2 8 m 1,10,-1
 2 10 l 1,11,-1
 8 10 l 1,12,-1
 8 8 l 1,13,-1
 2 8 l 1,10,-1
0 2 m 1,14,-1
 0 4 l 1,15,-1
 2 4 l 1,16,-1
 2 2 l 1,17,-1
 0 2 l 1,14,-1
EndSplineSet
Validated: 5
EndChar

StartChar: b
Encoding: 98 98 69
Width: 12
GlyphClass: 2
Flags: W
LayerCount: 2
Fore
SplineSet
4 10 m 1,0,-1
 4 8 l 1,1,-1
 8 8 l 1,2,-1
 8 10 l 1,3,-1
 4 10 l 1,0,-1
0 14 m 1,4,-1
 2 14 l 1,5,-1
 2 8 l 1,6,-1
 4 8 l 1,7,-1
 4 6 l 1,8,-1
 2 6 l 1,9,-1
 2 2 l 1,10,-1
 8 2 l 1,11,-1
 8 0 l 1,12,-1
 0 0 l 1,13,-1
 0 14 l 1,4,-1
8 2 m 1,14,-1
 8 8 l 1,15,-1
 10 8 l 1,16,-1
 10 2 l 1,17,-1
 8 2 l 1,14,-1
EndSplineSet
Validated: 5
EndChar

StartChar: c
Encoding: 99 99 70
Width: 12
GlyphClass: 2
Flags: W
LayerCount: 2
Fore
SplineSet
2 2 m 1,0,-1
 2 0 l 1,1,-1
 10 0 l 1,2,-1
 10 2 l 1,3,-1
 2 2 l 1,0,-1
2 8 m 1,4,-1
 2 10 l 1,5,-1
 10 10 l 1,6,-1
 10 8 l 1,7,-1
 2 8 l 1,4,-1
0 2 m 1,8,-1
 0 8 l 1,9,-1
 2 8 l 1,10,-1
 2 2 l 1,11,-1
 0 2 l 1,8,-1
EndSplineSet
Validated: 5
EndChar

StartChar: d
Encoding: 100 100 71
Width: 12
GlyphClass: 2
Flags: W
LayerCount: 2
Fore
SplineSet
8 14 m 1,0,-1
 10 14 l 1,1,-1
 10 0 l 1,2,-1
 2 0 l 1,3,-1
 2 2 l 1,4,-1
 8 2 l 1,5,-1
 8 6 l 1,6,-1
 6 6 l 1,7,-1
 6 8 l 1,8,-1
 8 8 l 1,9,-1
 8 14 l 1,0,-1
2 8 m 1,10,-1
 2 10 l 1,11,-1
 6 10 l 1,12,-1
 6 8 l 1,13,-1
 2 8 l 1,10,-1
0 2 m 1,14,-1
 0 8 l 1,15,-1
 2 8 l 1,16,-1
 2 2 l 1,17,-1
 0 2 l 1,14,-1
EndSplineSet
Validated: 5
EndChar

StartChar: e
Encoding: 101 101 72
Width: 12
GlyphClass: 2
Flags: W
LayerCount: 2
Fore
SplineSet
0 2 m 1,0,-1
 0 8 l 1,1,-1
 2 8 l 1,2,-1
 2 6 l 1,3,-1
 8 6 l 1,4,-1
 8 8 l 1,5,-1
 10 8 l 1,6,-1
 10 4 l 1,7,-1
 2 4 l 1,8,-1
 2 2 l 1,9,-1
 0 2 l 1,0,-1
2 0 m 1,10,-1
 2 2 l 1,11,-1
 8 2 l 1,12,-1
 8 0 l 1,13,-1
 2 0 l 1,10,-1
8 10 m 1,14,-1
 8 8 l 1,15,-1
 2 8 l 1,16,-1
 2 10 l 1,17,-1
 8 10 l 1,14,-1
EndSplineSet
Validated: 5
EndChar

StartChar: f
Encoding: 102 102 73
Width: 12
GlyphClass: 2
Flags: W
LayerCount: 2
Fore
SplineSet
4 12 m 1,0,-1
 6 12 l 1,1,-1
 6 10 l 1,2,-1
 10 10 l 1,3,-1
 10 8 l 1,4,-1
 6 8 l 1,5,-1
 6 0 l 1,6,-1
 4 0 l 1,7,-1
 4 8 l 1,8,-1
 0 8 l 1,9,-1
 0 10 l 1,10,-1
 4 10 l 1,11,-1
 4 12 l 1,0,-1
10 14 m 1,12,-1
 10 12 l 1,13,-1
 6 12 l 1,14,-1
 6 14 l 1,15,-1
 10 14 l 1,12,-1
EndSplineSet
Validated: 5
EndChar

StartChar: g
Encoding: 103 103 74
Width: 12
GlyphClass: 2
Flags: W
LayerCount: 2
Fore
SplineSet
2 10 m 1,0,-1
 10 10 l 1,1,-1
 10 2 l 1,2,-1
 8 2 l 1,3,-1
 8 4 l 1,4,-1
 2 4 l 1,5,-1
 2 6 l 1,6,-1
 8 6 l 1,7,-1
 8 8 l 1,8,-1
 2 8 l 1,9,-1
 2 10 l 1,0,-1
0 6 m 1,10,-1
 0 8 l 1,11,-1
 2 8 l 1,12,-1
 2 6 l 1,13,-1
 0 6 l 1,10,-1
2 0 m 5,14,-1
 2 2 l 1,15,-1
 8 2 l 1,16,-1
 8 0 l 1,17,-1
 2 0 l 5,14,-1
EndSplineSet
EndChar

StartChar: h
Encoding: 104 104 75
Width: 12
GlyphClass: 2
Flags: W
LayerCount: 2
Fore
SplineSet
8 8 m 1,0,-1
 8 10 l 1,1,-1
 4 10 l 1,2,-1
 4 8 l 1,3,-1
 8 8 l 1,0,-1
10 0 m 1,4,-1
 10 8 l 1,5,-1
 8 8 l 1,6,-1
 8 0 l 1,7,-1
 10 0 l 1,4,-1
0 14 m 1,8,-1
 2 14 l 1,9,-1
 2 8 l 1,10,-1
 4 8 l 1,11,-1
 4 6 l 1,12,-1
 2 6 l 1,13,-1
 2 0 l 1,14,-1
 0 0 l 1,15,-1
 0 14 l 1,8,-1
EndSplineSet
Validated: 5
EndChar

StartChar: i
Encoding: 105 105 76
Width: 12
GlyphClass: 2
Flags: W
LayerCount: 2
Fore
SplineSet
4 14 m 1,0,-1
 6 14 l 1,1,-1
 6 12 l 1,2,-1
 4 12 l 1,3,-1
 4 14 l 1,0,-1
0 10 m 1,4,-1
 6 10 l 1,5,-1
 6 2 l 1,6,-1
 10 2 l 1,7,-1
 10 0 l 1,8,-1
 0 0 l 1,9,-1
 0 2 l 1,10,-1
 4 2 l 1,11,-1
 4 8 l 1,12,-1
 0 8 l 1,13,-1
 0 10 l 1,4,-1
EndSplineSet
Validated: 1
EndChar

StartChar: j
Encoding: 106 106 77
Width: 12
GlyphClass: 2
Flags: W
LayerCount: 2
Fore
SplineSet
4 10 m 1,0,-1
 10 10 l 1,1,-1
 10 2 l 5,2,-1
 8 2 l 1,3,-1
 8 8 l 1,4,-1
 4 8 l 1,5,-1
 4 10 l 1,0,-1
2 2 m 1,6,-1
 2 4 l 1,7,-1
 0 4 l 1,8,-1
 0 2 l 1,9,-1
 2 2 l 1,6,-1
8 2 m 1,10,-1
 8 0 l 1,11,-1
 2 0 l 1,12,-1
 2 2 l 1,13,-1
 8 2 l 1,10,-1
8 14 m 1,14,-1
 8 12 l 1,15,-1
 10 12 l 1,16,-1
 10 14 l 1,17,-1
 8 14 l 1,14,-1
EndSplineSet
EndChar

StartChar: k
Encoding: 107 107 78
Width: 12
GlyphClass: 2
Flags: W
LayerCount: 2
Fore
SplineSet
0 0 m 1,0,-1
 0 14 l 1,1,-1
 2 14 l 1,2,-1
 2 6 l 1,3,-1
 4 6 l 1,4,-1
 4 4 l 1,5,-1
 2 4 l 1,6,-1
 2 0 l 1,7,-1
 0 0 l 1,0,-1
6 2 m 1,8,-1
 6 0 l 1,9,-1
 10 0 l 1,10,-1
 10 2 l 1,11,-1
 6 2 l 1,8,-1
4 4 m 1,12,-1
 4 2 l 1,13,-1
 6 2 l 1,14,-1
 6 4 l 1,15,-1
 4 4 l 1,12,-1
6 8 m 1,16,-1
 6 10 l 1,17,-1
 10 10 l 1,18,-1
 10 8 l 1,19,-1
 6 8 l 1,16,-1
4 6 m 1,20,-1
 4 8 l 1,21,-1
 6 8 l 1,22,-1
 6 6 l 1,23,-1
 4 6 l 1,20,-1
EndSplineSet
Validated: 5
EndChar

StartChar: l
Encoding: 108 108 79
Width: 12
GlyphClass: 2
Flags: W
LayerCount: 2
Fore
SplineSet
0 14 m 1,0,-1
 6 14 l 1,1,-1
 6 2 l 1,2,-1
 10 2 l 1,3,-1
 10 0 l 1,4,-1
 0 0 l 1,5,-1
 0 2 l 1,6,-1
 4 2 l 1,7,-1
 4 12 l 1,8,-1
 0 12 l 1,9,-1
 0 14 l 1,0,-1
EndSplineSet
Validated: 1
EndChar

StartChar: m
Encoding: 109 109 80
Width: 12
GlyphClass: 2
Flags: W
LayerCount: 2
Fore
SplineSet
8 8 m 1,0,-1
 10 8 l 1,1,-1
 10 0 l 1,2,-1
 8 0 l 1,3,-1
 8 8 l 1,0,-1
6 10 m 1,4,-1
 6 8 l 1,5,-1
 8 8 l 1,6,-1
 8 10 l 1,7,-1
 6 10 l 1,4,-1
4 8 m 1,8,-1
 6 8 l 1,9,-1
 6 0 l 1,10,-1
 4 0 l 1,11,-1
 4 8 l 1,8,-1
0 10 m 1,12,-1
 4 10 l 1,13,-1
 4 8 l 1,14,-1
 2 8 l 1,15,-1
 2 0 l 1,16,-1
 0 0 l 1,17,-1
 0 10 l 1,12,-1
EndSplineSet
Validated: 5
EndChar

StartChar: n
Encoding: 110 110 81
Width: 12
GlyphClass: 2
Flags: W
LayerCount: 2
Fore
SplineSet
8 8 m 1,0,-1
 10 8 l 1,1,-1
 10 0 l 1,2,-1
 8 0 l 1,3,-1
 8 8 l 1,0,-1
4 10 m 1,4,-1
 4 8 l 1,5,-1
 8 8 l 1,6,-1
 8 10 l 1,7,-1
 4 10 l 1,4,-1
0 10 m 1,8,-1
 2 10 l 1,9,-1
 2 8 l 1,10,-1
 4 8 l 1,11,-1
 4 6 l 1,12,-1
 2 6 l 1,13,-1
 2 0 l 1,14,-1
 0 0 l 1,15,-1
 0 10 l 1,8,-1
EndSplineSet
Validated: 5
EndChar

StartChar: o
Encoding: 111 111 82
Width: 12
GlyphClass: 2
Flags: W
LayerCount: 2
Fore
SplineSet
2 8 m 1,0,-1
 2 2 l 1,1,-1
 0 2 l 1,2,-1
 0 8 l 1,3,-1
 2 8 l 1,0,-1
8 10 m 1,4,-1
 8 8 l 1,5,-1
 2 8 l 1,6,-1
 2 10 l 1,7,-1
 8 10 l 1,4,-1
8 2 m 1,8,-1
 8 8 l 1,9,-1
 10 8 l 1,10,-1
 10 2 l 1,11,-1
 8 2 l 1,8,-1
2 2 m 1,12,-1
 2 0 l 1,13,-1
 8 0 l 1,14,-1
 8 2 l 1,15,-1
 2 2 l 1,12,-1
EndSplineSet
Validated: 5
EndChar

StartChar: p
Encoding: 112 112 83
Width: 12
GlyphClass: 2
Flags: W
LayerCount: 2
Fore
SplineSet
8 8 m 1,0,-1
 8 6 l 1,1,-1
 10 6 l 1,2,-1
 10 8 l 1,3,-1
 8 8 l 1,0,-1
0 0 m 5,4,-1
 0 10 l 1,5,-1
 8 10 l 1,6,-1
 8 8 l 1,7,-1
 2 8 l 1,8,-1
 2 6 l 1,9,-1
 8 6 l 1,10,-1
 8 4 l 1,11,-1
 2 4 l 1,12,-1
 2 0 l 1,13,-1
 0 0 l 5,4,-1
EndSplineSet
EndChar

StartChar: q
Encoding: 113 113 84
Width: 12
GlyphClass: 2
Flags: W
LayerCount: 2
Fore
SplineSet
2 10 m 1,0,-1
 10 10 l 1,1,-1
 10 0 l 5,2,-1
 8 0 l 1,3,-1
 8 4 l 1,4,-1
 2 4 l 1,5,-1
 2 6 l 1,6,-1
 8 6 l 1,7,-1
 8 8 l 1,8,-1
 2 8 l 1,9,-1
 2 10 l 1,0,-1
0 8 m 1,10,-1
 0 6 l 1,11,-1
 2 6 l 1,12,-1
 2 8 l 1,13,-1
 0 8 l 1,10,-1
EndSplineSet
EndChar

StartChar: r
Encoding: 114 114 85
Width: 12
GlyphClass: 2
Flags: W
LayerCount: 2
Fore
SplineSet
8 8 m 1,0,-1
 8 6 l 1,1,-1
 10 6 l 1,2,-1
 10 8 l 1,3,-1
 8 8 l 1,0,-1
4 10 m 1,4,-1
 4 8 l 1,5,-1
 8 8 l 1,6,-1
 8 10 l 1,7,-1
 4 10 l 1,4,-1
0 0 m 1,8,-1
 0 10 l 1,9,-1
 2 10 l 1,10,-1
 2 8 l 1,11,-1
 4 8 l 1,12,-1
 4 6 l 1,13,-1
 2 6 l 1,14,-1
 2 0 l 1,15,-1
 0 0 l 1,8,-1
EndSplineSet
Validated: 5
EndChar

StartChar: s
Encoding: 115 115 86
Width: 12
GlyphClass: 2
Flags: W
LayerCount: 2
Fore
SplineSet
2 10 m 1,0,-1
 2 8 l 1,1,-1
 10 8 l 1,2,-1
 10 10 l 1,3,-1
 2 10 l 1,0,-1
2 6 m 1,4,-1
 2 8 l 1,5,-1
 0 8 l 1,6,-1
 0 6 l 1,7,-1
 2 6 l 1,4,-1
8 4 m 1,8,-1
 8 6 l 1,9,-1
 2 6 l 1,10,-1
 2 4 l 1,11,-1
 8 4 l 1,8,-1
8 2 m 1,12,-1
 8 4 l 1,13,-1
 10 4 l 1,14,-1
 10 2 l 1,15,-1
 8 2 l 1,12,-1
0 2 m 1,16,-1
 0 0 l 1,17,-1
 8 0 l 1,18,-1
 8 2 l 1,19,-1
 0 2 l 1,16,-1
EndSplineSet
Validated: 5
EndChar

StartChar: t
Encoding: 116 116 87
Width: 12
GlyphClass: 2
Flags: W
LayerCount: 2
Fore
SplineSet
6 2 m 1,0,-1
 4 2 l 1,1,-1
 4 8 l 1,2,-1
 0 8 l 1,3,-1
 0 10 l 1,4,-1
 4 10 l 1,5,-1
 4 12 l 1,6,-1
 6 12 l 1,7,-1
 6 10 l 1,8,-1
 10 10 l 1,9,-1
 10 8 l 1,10,-1
 6 8 l 1,11,-1
 6 2 l 1,0,-1
10 0 m 1,12,-1
 10 2 l 1,13,-1
 6 2 l 1,14,-1
 6 0 l 1,15,-1
 10 0 l 1,12,-1
EndSplineSet
Validated: 5
EndChar

StartChar: u
Encoding: 117 117 88
Width: 12
GlyphClass: 2
Flags: W
LayerCount: 2
Fore
SplineSet
8 10 m 1,0,-1
 10 10 l 1,1,-1
 10 0 l 1,2,-1
 8 0 l 1,3,-1
 8 2 l 1,4,-1
 6 2 l 1,5,-1
 6 4 l 1,6,-1
 8 4 l 1,7,-1
 8 10 l 1,0,-1
2 2 m 1,8,-1
 2 0 l 1,9,-1
 6 0 l 1,10,-1
 6 2 l 1,11,-1
 2 2 l 1,8,-1
0 2 m 1,12,-1
 0 10 l 1,13,-1
 2 10 l 1,14,-1
 2 2 l 1,15,-1
 0 2 l 1,12,-1
EndSplineSet
Validated: 5
EndChar

StartChar: v
Encoding: 118 118 89
Width: 12
GlyphClass: 2
Flags: W
LayerCount: 2
Fore
SplineSet
2 6 m 1,0,-1
 2 10 l 1,1,-1
 0 10 l 1,2,-1
 0 6 l 1,3,-1
 2 6 l 1,0,-1
4 2 m 1,4,-1
 4 6 l 1,5,-1
 2 6 l 1,6,-1
 2 2 l 1,7,-1
 4 2 l 1,4,-1
8 6 m 1,8,-1
 8 10 l 1,9,-1
 10 10 l 1,10,-1
 10 6 l 1,11,-1
 8 6 l 1,8,-1
6 2 m 1,12,-1
 6 6 l 1,13,-1
 8 6 l 1,14,-1
 8 2 l 1,15,-1
 6 2 l 1,12,-1
4 0 m 1,16,-1
 4 2 l 1,17,-1
 6 2 l 1,18,-1
 6 0 l 1,19,-1
 4 0 l 1,16,-1
EndSplineSet
Validated: 5
EndChar

StartChar: w
Encoding: 119 119 90
Width: 12
GlyphClass: 2
Flags: W
LayerCount: 2
Fore
SplineSet
8 10 m 1,0,-1
 8 2 l 1,1,-1
 10 2 l 1,2,-1
 10 10 l 1,3,-1
 8 10 l 1,0,-1
6 2 m 1,4,-1
 6 0 l 1,5,-1
 8 0 l 1,6,-1
 8 2 l 1,7,-1
 6 2 l 1,4,-1
4 2 m 1,8,-1
 4 8 l 1,9,-1
 6 8 l 1,10,-1
 6 2 l 1,11,-1
 4 2 l 1,8,-1
2 2 m 1,12,-1
 2 0 l 1,13,-1
 4 0 l 1,14,-1
 4 2 l 1,15,-1
 2 2 l 1,12,-1
0 2 m 1,16,-1
 0 10 l 1,17,-1
 2 10 l 1,18,-1
 2 2 l 1,19,-1
 0 2 l 1,16,-1
EndSplineSet
Validated: 5
EndChar

StartChar: x
Encoding: 120 120 91
Width: 12
GlyphClass: 2
Flags: W
LayerCount: 2
Fore
SplineSet
2 8 m 1,0,-1
 2 10 l 1,1,-1
 0 10 l 1,2,-1
 0 8 l 1,3,-1
 2 8 l 1,0,-1
4 6 m 1,4,-1
 4 8 l 1,5,-1
 2 8 l 1,6,-1
 2 6 l 1,7,-1
 4 6 l 1,4,-1
8 8 m 1,8,-1
 8 10 l 1,9,-1
 10 10 l 1,10,-1
 10 8 l 1,11,-1
 8 8 l 1,8,-1
6 6 m 1,12,-1
 6 8 l 1,13,-1
 8 8 l 1,14,-1
 8 6 l 1,15,-1
 6 6 l 1,12,-1
8 2 m 1,16,-1
 8 0 l 1,17,-1
 10 0 l 1,18,-1
 10 2 l 1,19,-1
 8 2 l 1,16,-1
6 4 m 1,20,-1
 6 2 l 1,21,-1
 8 2 l 1,22,-1
 8 4 l 1,23,-1
 6 4 l 1,20,-1
4 4 m 1,24,-1
 4 6 l 1,25,-1
 6 6 l 1,26,-1
 6 4 l 1,27,-1
 4 4 l 1,24,-1
2 2 m 1,28,-1
 2 4 l 1,29,-1
 4 4 l 1,30,-1
 4 2 l 1,31,-1
 2 2 l 1,28,-1
0 0 m 1,32,-1
 0 2 l 1,33,-1
 2 2 l 1,34,-1
 2 0 l 1,35,-1
 0 0 l 1,32,-1
EndSplineSet
Validated: 5
EndChar

StartChar: y
Encoding: 121 121 92
Width: 12
GlyphClass: 2
Flags: W
LayerCount: 2
Fore
SplineSet
2 6 m 1,0,-1
 8 6 l 1,1,-1
 8 10 l 1,2,-1
 10 10 l 1,3,-1
 10 2 l 5,4,-1
 8 2 l 1,5,-1
 8 4 l 1,6,-1
 2 4 l 1,7,-1
 2 6 l 1,0,-1
2 2 m 1,8,-1
 2 0 l 1,9,-1
 8 0 l 1,10,-1
 8 2 l 1,11,-1
 2 2 l 1,8,-1
0 6 m 1,12,-1
 0 10 l 1,13,-1
 2 10 l 1,14,-1
 2 6 l 1,15,-1
 0 6 l 1,12,-1
EndSplineSet
EndChar

StartChar: z
Encoding: 122 122 93
Width: 12
GlyphClass: 2
Flags: W
LayerCount: 2
Fore
SplineSet
4 6 m 1,0,-1
 4 4 l 1,1,-1
 6 4 l 1,2,-1
 6 6 l 1,3,-1
 4 6 l 1,0,-1
0 0 m 1,4,-1
 0 2 l 1,5,-1
 2 2 l 1,6,-1
 2 4 l 1,7,-1
 4 4 l 1,8,-1
 4 2 l 1,9,-1
 10 2 l 1,10,-1
 10 0 l 1,11,-1
 0 0 l 1,4,-1
0 10 m 1,12,-1
 10 10 l 1,13,-1
 10 8 l 1,14,-1
 8 8 l 1,15,-1
 8 6 l 1,16,-1
 6 6 l 1,17,-1
 6 8 l 1,18,-1
 0 8 l 1,19,-1
 0 10 l 1,12,-1
EndSplineSet
Validated: 5
EndChar

StartChar: braceleft
Encoding: 123 123 94
Width: 12
GlyphClass: 2
Flags: W
LayerCount: 2
Fore
SplineSet
6 2 m 1,0,-1
 6 0 l 1,1,-1
 8 0 l 1,2,-1
 8 2 l 1,3,-1
 6 2 l 1,0,-1
4 6 m 1,4,-1
 4 2 l 1,5,-1
 6 2 l 1,6,-1
 6 6 l 1,7,-1
 4 6 l 1,4,-1
4 8 m 1,8,-1
 4 6 l 1,9,-1
 2 6 l 1,10,-1
 2 8 l 1,11,-1
 4 8 l 1,8,-1
6 12 m 1,12,-1
 6 8 l 1,13,-1
 4 8 l 1,14,-1
 4 12 l 1,15,-1
 6 12 l 1,12,-1
8 14 m 1,16,-1
 8 12 l 1,17,-1
 6 12 l 1,18,-1
 6 14 l 1,19,-1
 8 14 l 1,16,-1
EndSplineSet
Validated: 5
EndChar

StartChar: bar
Encoding: 124 124 95
Width: 12
GlyphClass: 2
Flags: W
LayerCount: 2
Fore
SplineSet
4 14 m 1,0,-1
 6 14 l 1,1,-1
 6 0 l 1,2,-1
 4 0 l 1,3,-1
 4 14 l 1,0,-1
EndSplineSet
Validated: 1
EndChar

StartChar: braceright
Encoding: 125 125 96
Width: 12
GlyphClass: 2
Flags: W
LayerCount: 2
Fore
SplineSet
4 2 m 1,0,-1
 4 0 l 1,1,-1
 2 0 l 1,2,-1
 2 2 l 1,3,-1
 4 2 l 1,0,-1
6 6 m 1,4,-1
 6 2 l 1,5,-1
 4 2 l 1,6,-1
 4 6 l 1,7,-1
 6 6 l 1,4,-1
6 8 m 1,8,-1
 6 6 l 1,9,-1
 8 6 l 1,10,-1
 8 8 l 1,11,-1
 6 8 l 1,8,-1
4 12 m 1,12,-1
 4 8 l 1,13,-1
 6 8 l 1,14,-1
 6 12 l 1,15,-1
 4 12 l 1,12,-1
2 14 m 1,16,-1
 2 12 l 1,17,-1
 4 12 l 1,18,-1
 4 14 l 1,19,-1
 2 14 l 1,16,-1
EndSplineSet
Validated: 5
EndChar

StartChar: asciitilde
Encoding: 126 126 97
Width: 12
GlyphClass: 2
Flags: W
LayerCount: 2
Fore
SplineSet
8 6 m 1,0,-1
 8 8 l 1,1,-1
 10 8 l 1,2,-1
 10 6 l 1,3,-1
 8 6 l 1,0,-1
6 6 m 1,4,-1
 6 4 l 1,5,-1
 8 4 l 1,6,-1
 8 6 l 1,7,-1
 6 6 l 1,4,-1
2 6 m 1,8,-1
 2 8 l 1,9,-1
 6 8 l 1,10,-1
 6 6 l 1,11,-1
 2 6 l 1,8,-1
0 4 m 1,12,-1
 0 6 l 1,13,-1
 2 6 l 1,14,-1
 2 4 l 1,15,-1
 0 4 l 1,12,-1
EndSplineSet
Validated: 5
EndChar

StartChar: copyright
Encoding: 169 169 98
Width: 16
GlyphClass: 2
Flags: W
LayerCount: 2
Fore
SplineSet
10 6 m 1,0,-1
 10 4 l 1,1,-1
 4 4 l 1,2,-1
 4 10 l 1,3,-1
 10 10 l 1,4,-1
 10 8 l 1,5,-1
 6 8 l 1,6,-1
 6 6 l 1,7,-1
 10 6 l 1,0,-1
14 10 m 1,8,-1
 14 4 l 1,9,-1
 12 4 l 1,10,-1
 12 10 l 1,11,-1
 14 10 l 1,8,-1
10 4 m 1,12,-1
 12 4 l 1,13,-1
 12 2 l 1,14,-1
 10 2 l 1,15,-1
 10 4 l 1,12,-1
4 0 m 1,16,-1
 4 2 l 1,17,-1
 10 2 l 1,18,-1
 10 0 l 1,19,-1
 4 0 l 1,16,-1
12 12 m 1,20,-1
 12 10 l 1,21,-1
 10 10 l 1,22,-1
 10 12 l 1,23,-1
 12 12 l 1,20,-1
4 14 m 1,24,-1
 10 14 l 1,25,-1
 10 12 l 1,26,-1
 4 12 l 1,27,-1
 4 14 l 1,24,-1
4 4 m 1,28,-1
 4 2 l 1,29,-1
 2 2 l 1,30,-1
 2 4 l 1,31,-1
 4 4 l 1,28,-1
2 12 m 1,32,-1
 4 12 l 1,33,-1
 4 10 l 1,34,-1
 2 10 l 1,35,-1
 2 12 l 1,32,-1
0 10 m 1,36,-1
 2 10 l 1,37,-1
 2 4 l 1,38,-1
 0 4 l 1,39,-1
 0 10 l 1,36,-1
EndSplineSet
Validated: 5
EndChar

StartChar: plusminus
Encoding: 177 177 99
Width: 16
GlyphClass: 2
Flags: W
LayerCount: 2
Fore
SplineSet
0 2 m 1,0,-1
 10 2 l 1,1,-1
 10 0 l 1,2,-1
 0 0 l 1,3,-1
 0 2 l 1,0,-1
4 14 m 1,4,-1
 6 14 l 1,5,-1
 6 10 l 1,6,-1
 10 10 l 1,7,-1
 10 8 l 1,8,-1
 6 8 l 1,9,-1
 6 4 l 1,10,-1
 4 4 l 1,11,-1
 4 8 l 1,12,-1
 0 8 l 1,13,-1
 0 10 l 1,14,-1
 4 10 l 1,15,-1
 4 14 l 1,4,-1
EndSplineSet
Validated: 1
EndChar

StartChar: multiply
Encoding: 215 215 100
Width: 12
GlyphClass: 2
Flags: W
LayerCount: 2
Fore
SplineSet
0 4 m 1,0,-1
 0 2 l 1,1,-1
 2 2 l 1,2,-1
 2 4 l 1,3,-1
 0 4 l 1,0,-1
8 4 m 1,4,-1
 8 2 l 1,5,-1
 10 2 l 1,6,-1
 10 4 l 1,7,-1
 8 4 l 1,4,-1
6 6 m 1,8,-1
 6 4 l 1,9,-1
 8 4 l 1,10,-1
 8 6 l 1,11,-1
 6 6 l 1,8,-1
2 6 m 1,12,-1
 2 4 l 1,13,-1
 4 4 l 1,14,-1
 4 6 l 1,15,-1
 2 6 l 1,12,-1
8 12 m 1,16,-1
 8 10 l 1,17,-1
 10 10 l 1,18,-1
 10 12 l 1,19,-1
 8 12 l 1,16,-1
6 10 m 1,20,-1
 6 8 l 1,21,-1
 8 8 l 1,22,-1
 8 10 l 1,23,-1
 6 10 l 1,20,-1
0 12 m 1,24,-1
 0 10 l 1,25,-1
 2 10 l 1,26,-1
 2 12 l 1,27,-1
 0 12 l 1,24,-1
2 10 m 1,28,-1
 2 8 l 1,29,-1
 4 8 l 1,30,-1
 4 10 l 1,31,-1
 2 10 l 1,28,-1
4 8 m 1,32,-1
 4 6 l 1,33,-1
 6 6 l 1,34,-1
 6 8 l 1,35,-1
 4 8 l 1,32,-1
EndSplineSet
Validated: 5
EndChar

StartChar: divide
Encoding: 247 247 101
Width: 16
GlyphClass: 2
Flags: W
LayerCount: 2
Fore
SplineSet
4 4 m 1,0,-1
 6 4 l 1,1,-1
 6 2 l 1,2,-1
 4 2 l 1,3,-1
 4 4 l 1,0,-1
4 12 m 1,4,-1
 6 12 l 1,5,-1
 6 10 l 1,6,-1
 4 10 l 1,7,-1
 4 12 l 1,4,-1
0 8 m 1,8,-1
 10 8 l 1,9,-1
 10 6 l 1,10,-1
 0 6 l 1,11,-1
 0 8 l 1,8,-1
EndSplineSet
Validated: 1
EndChar

StartChar: arrowleft
Encoding: 8592 8592 102
Width: 16
GlyphClass: 2
Flags: W
LayerCount: 2
Fore
SplineSet
0 8 m 1,0,-1
 2 8 l 1,1,-1
 2 10 l 1,2,-1
 4 10 l 1,3,-1
 4 12 l 1,4,-1
 6 12 l 1,5,-1
 6 8 l 1,6,-1
 14 8 l 1,7,-1
 14 6 l 1,8,-1
 6 6 l 1,9,-1
 6 2 l 1,10,-1
 4 2 l 1,11,-1
 4 4 l 1,12,-1
 2 4 l 1,13,-1
 2 6 l 1,14,-1
 0 6 l 1,15,-1
 0 8 l 1,0,-1
EndSplineSet
Validated: 1
EndChar

StartChar: arrowup
Encoding: 8593 8593 103
Width: 12
GlyphClass: 2
Flags: W
LayerCount: 2
Fore
SplineSet
4 14 m 1,0,-1
 6 14 l 1,1,-1
 6 12 l 1,2,-1
 8 12 l 1,3,-1
 8 10 l 1,4,-1
 10 10 l 1,5,-1
 10 8 l 1,6,-1
 6 8 l 1,7,-1
 6 0 l 1,8,-1
 4 0 l 1,9,-1
 4 8 l 1,10,-1
 0 8 l 1,11,-1
 0 10 l 1,12,-1
 2 10 l 1,13,-1
 2 12 l 1,14,-1
 4 12 l 1,15,-1
 4 14 l 1,0,-1
EndSplineSet
Validated: 1
EndChar

StartChar: arrowright
Encoding: 8594 8594 104
Width: 16
GlyphClass: 2
Flags: W
LayerCount: 2
Fore
SplineSet
0 8 m 1,0,-1
 8 8 l 1,1,-1
 8 12 l 1,2,-1
 10 12 l 1,3,-1
 10 10 l 1,4,-1
 12 10 l 1,5,-1
 12 8 l 1,6,-1
 14 8 l 1,7,-1
 14 6 l 1,8,-1
 12 6 l 1,9,-1
 12 4 l 1,10,-1
 10 4 l 1,11,-1
 10 2 l 1,12,-1
 8 2 l 1,13,-1
 8 6 l 1,14,-1
 0 6 l 1,15,-1
 0 8 l 1,0,-1
EndSplineSet
Validated: 1
EndChar

StartChar: arrowdown
Encoding: 8595 8595 105
Width: 12
GlyphClass: 2
Flags: W
LayerCount: 2
Fore
SplineSet
4 14 m 1,0,-1
 6 14 l 1,1,-1
 6 6 l 1,2,-1
 10 6 l 1,3,-1
 10 4 l 1,4,-1
 8 4 l 1,5,-1
 8 2 l 1,6,-1
 6 2 l 1,7,-1
 6 0 l 1,8,-1
 4 0 l 1,9,-1
 4 2 l 1,10,-1
 2 2 l 1,11,-1
 2 4 l 1,12,-1
 0 4 l 1,13,-1
 0 6 l 1,14,-1
 4 6 l 1,15,-1
 4 14 l 1,0,-1
EndSplineSet
Validated: 1
EndChar

StartChar: uni21E7
Encoding: 8679 8679 106
Width: 16
GlyphClass: 2
Flags: W
LayerCount: 2
Fore
SplineSet
2 6 m 1,0,-1
 4 6 l 1,1,-1
 4 2 l 1,2,-1
 10 2 l 1,3,-1
 10 6 l 1,4,-1
 12 6 l 1,5,-1
 12 0 l 1,6,-1
 2 0 l 1,7,-1
 2 6 l 1,0,-1
12 8 m 1,8,-1
 12 6 l 1,9,-1
 14 6 l 1,10,-1
 14 8 l 1,11,-1
 12 8 l 1,8,-1
10 10 m 1,12,-1
 10 8 l 1,13,-1
 12 8 l 1,14,-1
 12 10 l 1,15,-1
 10 10 l 1,12,-1
8 12 m 1,16,-1
 8 10 l 1,17,-1
 10 10 l 1,18,-1
 10 12 l 1,19,-1
 8 12 l 1,16,-1
2 8 m 1,20,-1
 2 6 l 1,21,-1
 0 6 l 1,22,-1
 0 8 l 1,23,-1
 2 8 l 1,20,-1
4 10 m 1,24,-1
 4 8 l 1,25,-1
 2 8 l 1,26,-1
 2 10 l 1,27,-1
 4 10 l 1,24,-1
6 12 m 1,28,-1
 6 10 l 1,29,-1
 4 10 l 1,30,-1
 4 12 l 1,31,-1
 6 12 l 1,28,-1
6 14 m 1,32,-1
 6 12 l 1,33,-1
 8 12 l 1,34,-1
 8 14 l 1,35,-1
 6 14 l 1,32,-1
EndSplineSet
Validated: 5
EndChar

StartChar: uni2303
Encoding: 8963 8963 107
Width: 16
GlyphClass: 2
Flags: W
LayerCount: 2
Fore
SplineSet
12 8 m 1,0,-1
 12 6 l 1,1,-1
 14 6 l 1,2,-1
 14 8 l 1,3,-1
 12 8 l 1,0,-1
0 8 m 1,4,-1
 0 6 l 1,5,-1
 2 6 l 1,6,-1
 2 8 l 1,7,-1
 0 8 l 1,4,-1
10 10 m 1,8,-1
 10 8 l 1,9,-1
 12 8 l 1,10,-1
 12 10 l 1,11,-1
 10 10 l 1,8,-1
8 12 m 1,12,-1
 8 10 l 1,13,-1
 10 10 l 1,14,-1
 10 12 l 1,15,-1
 8 12 l 1,12,-1
2 10 m 1,16,-1
 2 8 l 1,17,-1
 4 8 l 1,18,-1
 4 10 l 1,19,-1
 2 10 l 1,16,-1
4 12 m 1,20,-1
 4 10 l 1,21,-1
 6 10 l 1,22,-1
 6 12 l 1,23,-1
 4 12 l 1,20,-1
6 14 m 1,24,-1
 6 12 l 1,25,-1
 8 12 l 1,26,-1
 8 14 l 1,27,-1
 6 14 l 1,24,-1
EndSplineSet
Validated: 5
EndChar

StartChar: uni2318
Encoding: 8984 8984 108
Width: 16
GlyphClass: 2
Flags: W
LayerCount: 2
Fore
SplineSet
8 8 m 1,0,-1
 6 8 l 1,1,-1
 6 6 l 1,2,-1
 8 6 l 1,3,-1
 8 8 l 1,0,-1
4 12 m 1,4,-1
 6 12 l 1,5,-1
 6 10 l 1,6,-1
 8 10 l 1,7,-1
 8 12 l 1,8,-1
 10 12 l 1,9,-1
 10 10 l 1,10,-1
 12 10 l 1,11,-1
 12 8 l 1,12,-1
 10 8 l 1,13,-1
 10 6 l 1,14,-1
 12 6 l 1,15,-1
 12 4 l 1,16,-1
 10 4 l 1,17,-1
 10 2 l 1,18,-1
 8 2 l 1,19,-1
 8 4 l 1,20,-1
 6 4 l 1,21,-1
 6 2 l 1,22,-1
 4 2 l 1,23,-1
 4 4 l 1,24,-1
 2 4 l 1,25,-1
 2 6 l 1,26,-1
 4 6 l 1,27,-1
 4 8 l 1,28,-1
 2 8 l 1,29,-1
 2 10 l 1,30,-1
 4 10 l 1,31,-1
 4 12 l 1,4,-1
12 12 m 1,32,-1
 12 10 l 1,33,-1
 14 10 l 1,34,-1
 14 12 l 1,35,-1
 12 12 l 1,32,-1
10 14 m 1,36,-1
 10 12 l 1,37,-1
 12 12 l 1,38,-1
 12 14 l 1,39,-1
 10 14 l 1,36,-1
12 2 m 1,40,-1
 12 4 l 1,41,-1
 14 4 l 1,42,-1
 14 2 l 1,43,-1
 12 2 l 1,40,-1
10 0 m 1,44,-1
 10 2 l 1,45,-1
 12 2 l 1,46,-1
 12 0 l 1,47,-1
 10 0 l 1,44,-1
2 0 m 1,48,-1
 2 2 l 1,49,-1
 4 2 l 1,50,-1
 4 0 l 1,51,-1
 2 0 l 1,48,-1
0 2 m 1,52,-1
 0 4 l 1,53,-1
 2 4 l 1,54,-1
 2 2 l 1,55,-1
 0 2 l 1,52,-1
2 14 m 1,56,-1
 2 12 l 1,57,-1
 4 12 l 1,58,-1
 4 14 l 1,59,-1
 2 14 l 1,56,-1
0 12 m 1,60,-1
 0 10 l 1,61,-1
 2 10 l 1,62,-1
 2 12 l 1,63,-1
 0 12 l 1,60,-1
EndSplineSet
Validated: 5
EndChar

StartChar: uni2325
Encoding: 8997 8997 109
Width: 16
GlyphClass: 2
Flags: W
LayerCount: 2
Fore
SplineSet
8 14 m 1,0,-1
 8 12 l 1,1,-1
 14 12 l 1,2,-1
 14 14 l 1,3,-1
 8 14 l 1,0,-1
8 2 m 1,4,-1
 8 0 l 1,5,-1
 12 0 l 1,6,-1
 12 2 l 1,7,-1
 8 2 l 1,4,-1
6 6 m 1,8,-1
 6 2 l 1,9,-1
 8 2 l 1,10,-1
 8 6 l 1,11,-1
 6 6 l 1,8,-1
4 10 m 1,12,-1
 4 6 l 1,13,-1
 6 6 l 1,14,-1
 6 10 l 1,15,-1
 4 10 l 1,12,-1
0 14 m 1,16,-1
 4 14 l 1,17,-1
 4 10 l 1,18,-1
 2 10 l 1,19,-1
 2 12 l 1,20,-1
 0 12 l 1,21,-1
 0 14 l 1,16,-1
EndSplineSet
Validated: 5
EndChar

StartChar: uni2326
Encoding: 8998 8998 110
Width: 16
GlyphClass: 2
Flags: W
LayerCount: 2
Fore
SplineSet
18 8 m 1,0,-1
 18 6 l 1,1,-1
 16 6 l 1,2,-1
 16 8 l 1,3,-1
 18 8 l 1,0,-1
16 6 m 1,4,-1
 16 4 l 1,5,-1
 14 4 l 1,6,-1
 14 6 l 1,7,-1
 16 6 l 1,4,-1
16 10 m 1,8,-1
 16 8 l 1,9,-1
 14 8 l 1,10,-1
 14 10 l 1,11,-1
 16 10 l 1,8,-1
14 4 m 1,12,-1
 14 2 l 1,13,-1
 12 2 l 1,14,-1
 12 4 l 1,15,-1
 14 4 l 1,12,-1
14 12 m 1,16,-1
 14 10 l 1,17,-1
 12 10 l 1,18,-1
 12 12 l 1,19,-1
 14 12 l 1,16,-1
10 6 m 1,20,-1
 10 4 l 1,21,-1
 8 4 l 1,22,-1
 8 6 l 1,23,-1
 10 6 l 1,20,-1
8 10 m 1,24,-1
 10 10 l 1,25,-1
 10 8 l 1,26,-1
 8 8 l 1,27,-1
 8 10 l 1,24,-1
6 4 m 1,28,-1
 4 4 l 1,29,-1
 4 6 l 1,30,-1
 6 6 l 1,31,-1
 6 4 l 1,28,-1
8 8 m 1,32,-1
 8 6 l 1,33,-1
 6 6 l 1,34,-1
 6 8 l 1,35,-1
 8 8 l 1,32,-1
4 10 m 1,36,-1
 6 10 l 1,37,-1
 6 8 l 1,38,-1
 4 8 l 1,39,-1
 4 10 l 1,36,-1
0 0 m 1,40,-1
 0 14 l 1,41,-1
 12 14 l 1,42,-1
 12 12 l 1,43,-1
 2 12 l 1,44,-1
 2 2 l 1,45,-1
 12 2 l 1,46,-1
 12 0 l 1,47,-1
 0 0 l 1,40,-1
EndSplineSet
Validated: 5
EndChar

StartChar: uni232B
Encoding: 9003 9003 111
Width: 20
GlyphClass: 2
Flags: W
LayerCount: 2
Fore
SplineSet
6 14 m 1,0,-1
 18 14 l 1,1,-1
 18 0 l 1,2,-1
 6 0 l 1,3,-1
 6 2 l 1,4,-1
 16 2 l 1,5,-1
 16 12 l 1,6,-1
 6 12 l 1,7,-1
 6 14 l 1,0,-1
12 6 m 1,8,-1
 12 4 l 1,9,-1
 14 4 l 1,10,-1
 14 6 l 1,11,-1
 12 6 l 1,8,-1
8 6 m 1,12,-1
 8 4 l 1,13,-1
 10 4 l 1,14,-1
 10 6 l 1,15,-1
 8 6 l 1,12,-1
12 10 m 1,16,-1
 12 8 l 1,17,-1
 14 8 l 1,18,-1
 14 10 l 1,19,-1
 12 10 l 1,16,-1
10 8 m 1,20,-1
 10 6 l 1,21,-1
 12 6 l 1,22,-1
 12 8 l 1,23,-1
 10 8 l 1,20,-1
8 10 m 1,24,-1
 8 8 l 1,25,-1
 10 8 l 1,26,-1
 10 10 l 1,27,-1
 8 10 l 1,24,-1
4 4 m 1,28,-1
 4 2 l 1,29,-1
 6 2 l 1,30,-1
 6 4 l 1,31,-1
 4 4 l 1,28,-1
4 12 m 1,32,-1
 4 10 l 1,33,-1
 6 10 l 1,34,-1
 6 12 l 1,35,-1
 4 12 l 1,32,-1
2 6 m 1,36,-1
 2 4 l 1,37,-1
 4 4 l 1,38,-1
 4 6 l 1,39,-1
 2 6 l 1,36,-1
2 10 m 1,40,-1
 2 8 l 1,41,-1
 4 8 l 1,42,-1
 4 10 l 1,43,-1
 2 10 l 1,40,-1
0 8 m 1,44,-1
 0 6 l 1,45,-1
 2 6 l 1,46,-1
 2 8 l 1,47,-1
 0 8 l 1,44,-1
EndSplineSet
Validated: 5
EndChar

StartChar: uni2387
Encoding: 9095 9095 112
Width: 16
GlyphClass: 2
Flags: W
LayerCount: 2
Fore
SplineSet
8 0 m 1,0,-1
 8 2 l 1,1,-1
 14 2 l 1,2,-1
 14 0 l 1,3,-1
 8 0 l 1,0,-1
12 12 m 1,4,-1
 8 12 l 1,5,-1
 8 14 l 1,6,-1
 12 14 l 1,7,-1
 12 12 l 1,4,-1
8 8 m 1,8,-1
 6 8 l 1,9,-1
 6 12 l 1,10,-1
 8 12 l 1,11,-1
 8 8 l 1,8,-1
6 4 m 1,12,-1
 4 4 l 1,13,-1
 4 8 l 1,14,-1
 6 8 l 1,15,-1
 6 4 l 1,12,-1
0 0 m 1,16,-1
 0 2 l 1,17,-1
 2 2 l 1,18,-1
 2 4 l 1,19,-1
 4 4 l 1,20,-1
 4 0 l 1,21,-1
 0 0 l 1,16,-1
EndSplineSet
Validated: 5
EndChar

StartChar: uni238B
Encoding: 9099 9099 113
Width: 16
GlyphClass: 2
Flags: W
LayerCount: 2
Fore
SplineSet
0 6 m 1,0,-1
 2 6 l 1,1,-1
 2 4 l 1,2,-1
 0 4 l 1,3,-1
 0 6 l 1,0,-1
2 2 m 1,4,-1
 2 4 l 1,5,-1
 4 4 l 1,6,-1
 4 2 l 1,7,-1
 2 2 l 1,4,-1
10 0 m 1,8,-1
 4 0 l 1,9,-1
 4 2 l 1,10,-1
 10 2 l 1,11,-1
 10 0 l 1,8,-1
12 2 m 1,12,-1
 10 2 l 1,13,-1
 10 4 l 1,14,-1
 12 4 l 1,15,-1
 12 2 l 1,12,-1
14 10 m 1,16,-1
 14 4 l 1,17,-1
 12 4 l 1,18,-1
 12 10 l 1,19,-1
 14 10 l 1,16,-1
12 12 m 1,20,-1
 12 10 l 1,21,-1
 10 10 l 1,22,-1
 10 12 l 1,23,-1
 12 12 l 1,20,-1
8 14 m 1,24,-1
 10 14 l 1,25,-1
 10 12 l 1,26,-1
 8 12 l 1,27,-1
 8 14 l 1,24,-1
8 8 m 1,28,-1
 8 6 l 1,29,-1
 6 6 l 1,30,-1
 6 8 l 1,31,-1
 8 8 l 1,28,-1
6 10 m 1,32,-1
 6 8 l 1,33,-1
 4 8 l 1,34,-1
 4 10 l 1,35,-1
 6 10 l 1,32,-1
0 14 m 1,36,-1
 6 14 l 1,37,-1
 6 12 l 1,38,-1
 4 12 l 1,39,-1
 4 10 l 1,40,-1
 2 10 l 1,41,-1
 2 8 l 1,42,-1
 0 8 l 1,43,-1
 0 14 l 1,36,-1
EndSplineSet
Validated: 5
EndChar

StartChar: uni23CE
Encoding: 9166 9166 114
Width: 16
GlyphClass: 2
Flags: W
LayerCount: 2
Fore
SplineSet
0 8 m 1,0,-1
 2 8 l 1,1,-1
 2 10 l 1,2,-1
 4 10 l 1,3,-1
 4 12 l 1,4,-1
 6 12 l 1,5,-1
 6 8 l 1,6,-1
 12 8 l 1,7,-1
 12 6 l 1,8,-1
 6 6 l 1,9,-1
 6 2 l 1,10,-1
 4 2 l 1,11,-1
 4 4 l 1,12,-1
 2 4 l 1,13,-1
 2 6 l 1,14,-1
 0 6 l 1,15,-1
 0 8 l 1,0,-1
12 14 m 1,16,-1
 12 8 l 1,17,-1
 14 8 l 1,18,-1
 14 14 l 1,19,-1
 12 14 l 1,16,-1
EndSplineSet
Validated: 5
EndChar

StartChar: uni2423
Encoding: 9251 9251 115
Width: 16
GlyphClass: 2
Flags: W
LayerCount: 2
Fore
SplineSet
0 4 m 1,0,-1
 2 4 l 1,1,-1
 2 2 l 1,2,-1
 12 2 l 1,3,-1
 12 4 l 1,4,-1
 14 4 l 1,5,-1
 14 0 l 1,6,-1
 0 0 l 1,7,-1
 0 4 l 1,0,-1
EndSplineSet
Validated: 1
EndChar

StartChar: uniFFFD
Encoding: 65533 65533 116
Width: 12
GlyphClass: 2
Flags: W
LayerCount: 2
Fore
SplineSet
2 12 m 1,0,-1
 2 2 l 1,1,-1
 8 2 l 1,2,-1
 8 12 l 1,3,-1
 2 12 l 1,0,-1
0 14 m 1,4,-1
 10 14 l 1,5,-1
 10 0 l 1,6,-1
 0 0 l 1,7,-1
 0 14 l 1,4,-1
EndSplineSet
Validated: 1
EndChar
